M48
; DRILL file {Flux 9.0.6-9.0.6~ubuntu22.04.1} date 2026-01-08T03:09:05+0000
; FORMAT={-:-/ absolute / metric / decimal}
; #@! TF.CreationDate,2026-01-08T03:09:05+00:00
; #@! TF.GenerationSoftware,Kicad,Pcbnew,9.0.6-9.0.6~ubuntu22.04.1
; #@! TF.FileFunction,MixedPlating,1,2
FMAT,2
METRIC
; #@! TA.AperFunction,Plated,PTH,ComponentDrill
T1C0.300
; #@! TA.AperFunction,Plated,PTH,ComponentDrill
T2C0.889
; #@! TA.AperFunction,Plated,PTH,ComponentDrill
T3C0.900
; #@! TA.AperFunction,Plated,PTH,ComponentDrill
T4C1.016
; #@! TA.AperFunction,Plated,PTH,ComponentDrill
T5C1.400
; #@! TA.AperFunction,NonPlated,NPTH,ComponentDrill
T6C1.650
%
G90
G05
T1
X433.178Y-194.882
X448.178Y-164.882
X451.03Y-194.742
X459.334Y-186.726
X460.25Y-175.477
X462.305Y-169.068
X463.178Y-134.882
X464.477Y-177.156
X465.488Y-165.33
X468.562Y-160.48
X469.821Y-187.151
X478.178Y-149.882
X478.178Y-164.882
X478.178Y-194.882
X493.178Y-179.882
X493.178Y-194.882
X508.178Y-194.882
T2
X483.865Y-184.43
X495.295Y-184.43
T3
X494.025Y-191.328
X496.565Y-191.328
T4
X451.164Y-177.582
X453.364Y-176.312
X455.564Y-175.042
X457.764Y-173.772
X458.784Y-190.78
X459.963Y-172.502
X460.984Y-189.51
X462.163Y-171.232
X463.184Y-188.24
X464.363Y-169.962
X465.384Y-186.97
X466.562Y-168.692
X467.583Y-185.7
X468.762Y-167.422
X469.783Y-184.43
X470.962Y-166.152
X471.983Y-183.16
X473.162Y-164.882
X474.182Y-181.89
X475.361Y-163.612
X476.382Y-180.62
X477.561Y-162.342
X478.582Y-179.35
X479.761Y-161.072
X480.782Y-178.08
X481.96Y-159.802
X482.981Y-176.81
X485.181Y-175.54
X487.381Y-174.27
X489.58Y-173.0
T5
X433.912Y-199.067
X438.912Y-199.067
X443.912Y-199.067
X468.161Y-199.737
X473.161Y-199.737
X478.161Y-199.737
T6
X448.965Y-178.852
X456.585Y-192.05
X484.16Y-158.532
X491.78Y-171.73
M30
