%TF.GenerationSoftware,Flux,Pcbnew,9.0.6-9.0.6~ubuntu22.04.1*%
%TF.CreationDate,2026-01-08T03:09:02+00:00*%
%TF.ProjectId,input,696e7075-742e-46b6-9963-61645f706362,rev?*%
%TF.SameCoordinates,Original*%
%TF.FileFunction,Soldermask,Bot*%
%TF.FilePolarity,Negative*%
%FSLAX46Y46*%
G04 Gerber Fmt 4.6, Leading zero omitted, Abs format (unit mm)*
G04 Filename: pegjumpinggamepcb-179b*
G04 Build it with Flux! Visit our site at: https://www.flux.ai (PCBNEW 9.0.6-9.0.6~ubuntu22.04.1) date 2026-01-08 03:09:02*
%MOMM*%
%LPD*%
G01*
G04 APERTURE LIST*
%ADD10C,0.000000*%
G04 APERTURE END LIST*
D10*
%TO.C,*%
G36*
X496909715Y-190496208D02*
G01*
X497113185Y-190613682D01*
X497279318Y-190779815D01*
X497396792Y-190983285D01*
X497457600Y-191210226D01*
X497457600Y-191445174D01*
X497396792Y-191672115D01*
X497279318Y-191875585D01*
X497113185Y-192041718D01*
X496909715Y-192159192D01*
X496682774Y-192220000D01*
X496447826Y-192220000D01*
X496220885Y-192159192D01*
X496017415Y-192041718D01*
X495851282Y-191875585D01*
X495733808Y-191672115D01*
X495673000Y-191445174D01*
X495673000Y-191210226D01*
X495733808Y-190983285D01*
X495851282Y-190779815D01*
X496017415Y-190613682D01*
X496220885Y-190496208D01*
X496447826Y-190435400D01*
X496682774Y-190435400D01*
X496909715Y-190496208D01*
G37*
G36*
X494925300Y-192227700D02*
G01*
X493125300Y-192227700D01*
X493125300Y-190427700D01*
X494925300Y-190427700D01*
X494925300Y-192227700D01*
G37*
G36*
X483001265Y-160080516D02*
G01*
X481681441Y-160842514D01*
X480919443Y-159522690D01*
X482239267Y-158760692D01*
X483001265Y-160080516D01*
G37*
G36*
X455855484Y-174337569D02*
G01*
X456027755Y-174437031D01*
X456168414Y-174577690D01*
X456267874Y-174749961D01*
X456319359Y-174942105D01*
X456319359Y-175141027D01*
X456267874Y-175333171D01*
X456168412Y-175505442D01*
X456027753Y-175646101D01*
X455855481Y-175745562D01*
X455663338Y-175797046D01*
X455464416Y-175797046D01*
X455272272Y-175745561D01*
X455100001Y-175646100D01*
X454959342Y-175505441D01*
X454859881Y-175333169D01*
X454808397Y-175141025D01*
X454808397Y-174942103D01*
X454859882Y-174749959D01*
X454959343Y-174577688D01*
X455100002Y-174437029D01*
X455272274Y-174337569D01*
X455464418Y-174286084D01*
X455663340Y-174286084D01*
X455855484Y-174337569D01*
G37*
G36*
X461275758Y-188805804D02*
G01*
X461448030Y-188905266D01*
X461588688Y-189045925D01*
X461688149Y-189218196D01*
X461739634Y-189410340D01*
X461739633Y-189609262D01*
X461688148Y-189801406D01*
X461588687Y-189973677D01*
X461448028Y-190114336D01*
X461275756Y-190213797D01*
X461083612Y-190265281D01*
X460884690Y-190265281D01*
X460692547Y-190213796D01*
X460520275Y-190114335D01*
X460379617Y-189973676D01*
X460280156Y-189801404D01*
X460228671Y-189609260D01*
X460228672Y-189410338D01*
X460280157Y-189218194D01*
X460379618Y-189045923D01*
X460520277Y-188905264D01*
X460692549Y-188805804D01*
X460884693Y-188754319D01*
X461083615Y-188754319D01*
X461275758Y-188805804D01*
G37*
G36*
X465483027Y-186214326D02*
G01*
X465675171Y-186265811D01*
X465847442Y-186365272D01*
X465988101Y-186505931D01*
X466087562Y-186678203D01*
X466139046Y-186870347D01*
X466139046Y-187069268D01*
X466087561Y-187261412D01*
X465988100Y-187433684D01*
X465847441Y-187574342D01*
X465675169Y-187673803D01*
X465483025Y-187725288D01*
X465284103Y-187725287D01*
X465091959Y-187673802D01*
X464919688Y-187574341D01*
X464779029Y-187433682D01*
X464679569Y-187261410D01*
X464628084Y-187069266D01*
X464628084Y-186870344D01*
X464679569Y-186678201D01*
X464779031Y-186505929D01*
X464919690Y-186365271D01*
X465091961Y-186265810D01*
X465284105Y-186214325D01*
X465483027Y-186214326D01*
G37*
G36*
X462454603Y-170527579D02*
G01*
X462626874Y-170627040D01*
X462767533Y-170767699D01*
X462866993Y-170939971D01*
X462918478Y-171132115D01*
X462918478Y-171331037D01*
X462866993Y-171523180D01*
X462767531Y-171695452D01*
X462626872Y-171836111D01*
X462454601Y-171935571D01*
X462262457Y-171987056D01*
X462063535Y-171987056D01*
X461871391Y-171935570D01*
X461699120Y-171836109D01*
X461558461Y-171695450D01*
X461459000Y-171523178D01*
X461407516Y-171331035D01*
X461407516Y-171132113D01*
X461459001Y-170939969D01*
X461558462Y-170767698D01*
X461699121Y-170627039D01*
X461871393Y-170527578D01*
X462063537Y-170476094D01*
X462262459Y-170476094D01*
X462454603Y-170527579D01*
G37*
G36*
X459076052Y-190075801D02*
G01*
X459248323Y-190175262D01*
X459388982Y-190315922D01*
X459488443Y-190488193D01*
X459539927Y-190680337D01*
X459539927Y-190879259D01*
X459488442Y-191071403D01*
X459388981Y-191243674D01*
X459248322Y-191384333D01*
X459076050Y-191483794D01*
X458883906Y-191535278D01*
X458684984Y-191535278D01*
X458492840Y-191483793D01*
X458320569Y-191384332D01*
X458179910Y-191243672D01*
X458080450Y-191071401D01*
X458028965Y-190879257D01*
X458028965Y-190680335D01*
X458080450Y-190488191D01*
X458179912Y-190315920D01*
X458320571Y-190175261D01*
X458492842Y-190075800D01*
X458684986Y-190024316D01*
X458883908Y-190024316D01*
X459076052Y-190075801D01*
G37*
G36*
X466854015Y-167987585D02*
G01*
X467026287Y-168087046D01*
X467166945Y-168227706D01*
X467266406Y-168399977D01*
X467317891Y-168592121D01*
X467317890Y-168791043D01*
X467266405Y-168983187D01*
X467166944Y-169155458D01*
X467026285Y-169296117D01*
X466854013Y-169395578D01*
X466661869Y-169447062D01*
X466462947Y-169447062D01*
X466270804Y-169395577D01*
X466098532Y-169296116D01*
X465957874Y-169155456D01*
X465858413Y-168983185D01*
X465806928Y-168791041D01*
X465806929Y-168592119D01*
X465858414Y-168399975D01*
X465957875Y-168227704D01*
X466098534Y-168087045D01*
X466270806Y-167987584D01*
X466462950Y-167936100D01*
X466661871Y-167936100D01*
X466854015Y-167987585D01*
G37*
G36*
X460062752Y-171746091D02*
G01*
X460254896Y-171797576D01*
X460427167Y-171897037D01*
X460567826Y-172037696D01*
X460667287Y-172209968D01*
X460718772Y-172402112D01*
X460718771Y-172601034D01*
X460667286Y-172793177D01*
X460567825Y-172965449D01*
X460427166Y-173106107D01*
X460254894Y-173205568D01*
X460062750Y-173257053D01*
X459863828Y-173257052D01*
X459671685Y-173205567D01*
X459499413Y-173106106D01*
X459358755Y-172965447D01*
X459259294Y-172793175D01*
X459207809Y-172601031D01*
X459207810Y-172402110D01*
X459259295Y-172209966D01*
X459358756Y-172037694D01*
X459499415Y-171897036D01*
X459671687Y-171797575D01*
X459863831Y-171746090D01*
X460062752Y-171746091D01*
G37*
G36*
X469053722Y-166717588D02*
G01*
X469225993Y-166817050D01*
X469366652Y-166957709D01*
X469466112Y-167129980D01*
X469517597Y-167322124D01*
X469517597Y-167521046D01*
X469466112Y-167713190D01*
X469366650Y-167885461D01*
X469225991Y-168026120D01*
X469053720Y-168125581D01*
X468861576Y-168177065D01*
X468662654Y-168177065D01*
X468470510Y-168125580D01*
X468298239Y-168026119D01*
X468157580Y-167885459D01*
X468058119Y-167713188D01*
X468006635Y-167521044D01*
X468006635Y-167322122D01*
X468058120Y-167129978D01*
X468157581Y-166957707D01*
X468298240Y-166817048D01*
X468470512Y-166717588D01*
X468662656Y-166666103D01*
X468861578Y-166666103D01*
X469053722Y-166717588D01*
G37*
G36*
X485472528Y-174835839D02*
G01*
X485644799Y-174935300D01*
X485785458Y-175075959D01*
X485884919Y-175248231D01*
X485936403Y-175440375D01*
X485936403Y-175639297D01*
X485884918Y-175831441D01*
X485785457Y-176003712D01*
X485644798Y-176144371D01*
X485472526Y-176243831D01*
X485280382Y-176295316D01*
X485081460Y-176295316D01*
X484889316Y-176243831D01*
X484717045Y-176144369D01*
X484576386Y-176003710D01*
X484476926Y-175831439D01*
X484425441Y-175639295D01*
X484425441Y-175440373D01*
X484476926Y-175248229D01*
X484576388Y-175075958D01*
X484717047Y-174935299D01*
X484889319Y-174835838D01*
X485081462Y-174784354D01*
X485280384Y-174784354D01*
X485472528Y-174835839D01*
G37*
G36*
X464654309Y-169257582D02*
G01*
X464826580Y-169357043D01*
X464967239Y-169497702D01*
X465066700Y-169669974D01*
X465118184Y-169862118D01*
X465118184Y-170061040D01*
X465066699Y-170253184D01*
X464967238Y-170425455D01*
X464826578Y-170566114D01*
X464654307Y-170665574D01*
X464462163Y-170717059D01*
X464263241Y-170717059D01*
X464071097Y-170665574D01*
X463898826Y-170566112D01*
X463758167Y-170425453D01*
X463658706Y-170253182D01*
X463607222Y-170061038D01*
X463607222Y-169862116D01*
X463658707Y-169669972D01*
X463758169Y-169497701D01*
X463898828Y-169357042D01*
X464071099Y-169257581D01*
X464263243Y-169206097D01*
X464462165Y-169206097D01*
X464654309Y-169257582D01*
G37*
G36*
X480052253Y-160367604D02*
G01*
X480224525Y-160467065D01*
X480365183Y-160607724D01*
X480464644Y-160779996D01*
X480516129Y-160972140D01*
X480516128Y-161171062D01*
X480464643Y-161363206D01*
X480365182Y-161535477D01*
X480224523Y-161676136D01*
X480052251Y-161775596D01*
X479860107Y-161827081D01*
X479661185Y-161827081D01*
X479469042Y-161775596D01*
X479296770Y-161676134D01*
X479156112Y-161535475D01*
X479056651Y-161363204D01*
X479005166Y-161171060D01*
X479005167Y-160972138D01*
X479056652Y-160779994D01*
X479156113Y-160607723D01*
X479296772Y-160467064D01*
X479469044Y-160367603D01*
X479661188Y-160316119D01*
X479860110Y-160316119D01*
X480052253Y-160367604D01*
G37*
G36*
X473260990Y-164126110D02*
G01*
X473453134Y-164177595D01*
X473625406Y-164277056D01*
X473766064Y-164417715D01*
X473865525Y-164589987D01*
X473917010Y-164782131D01*
X473917009Y-164981052D01*
X473865524Y-165173196D01*
X473766063Y-165345467D01*
X473625404Y-165486126D01*
X473453132Y-165585587D01*
X473260988Y-165637072D01*
X473062066Y-165637071D01*
X472869923Y-165585586D01*
X472697651Y-165486125D01*
X472556993Y-165345466D01*
X472457532Y-165173194D01*
X472406047Y-164981050D01*
X472406048Y-164782128D01*
X472457533Y-164589985D01*
X472556994Y-164417713D01*
X472697653Y-164277055D01*
X472869925Y-164177594D01*
X473062069Y-164126109D01*
X473260990Y-164126110D01*
G37*
G36*
X489871941Y-172295845D02*
G01*
X490044212Y-172395306D01*
X490184871Y-172535966D01*
X490284332Y-172708237D01*
X490335816Y-172900381D01*
X490335816Y-173099303D01*
X490284331Y-173291447D01*
X490184870Y-173463718D01*
X490044210Y-173604377D01*
X489871939Y-173703838D01*
X489679795Y-173755322D01*
X489480873Y-173755322D01*
X489288729Y-173703837D01*
X489116458Y-173604376D01*
X488975799Y-173463716D01*
X488876338Y-173291445D01*
X488824854Y-173099301D01*
X488824854Y-172900379D01*
X488876339Y-172708235D01*
X488975800Y-172535964D01*
X489116460Y-172395305D01*
X489288731Y-172295844D01*
X489480875Y-172244360D01*
X489679797Y-172244360D01*
X489871941Y-172295845D01*
G37*
G36*
X453655777Y-175607566D02*
G01*
X453828048Y-175707028D01*
X453968707Y-175847687D01*
X454068168Y-176019958D01*
X454119653Y-176212102D01*
X454119652Y-176411024D01*
X454068167Y-176603168D01*
X453968706Y-176775439D01*
X453828047Y-176916098D01*
X453655775Y-177015559D01*
X453463631Y-177067043D01*
X453264709Y-177067043D01*
X453072566Y-177015558D01*
X452900294Y-176916097D01*
X452759635Y-176775437D01*
X452660175Y-176603166D01*
X452608690Y-176411022D01*
X452608691Y-176212100D01*
X452660176Y-176019956D01*
X452759637Y-175847685D01*
X452900296Y-175707026D01*
X453072568Y-175607565D01*
X453264712Y-175556081D01*
X453463633Y-175556081D01*
X453655777Y-175607566D01*
G37*
G36*
X487672234Y-173565842D02*
G01*
X487844506Y-173665303D01*
X487985165Y-173805963D01*
X488084625Y-173978234D01*
X488136110Y-174170378D01*
X488136109Y-174369300D01*
X488084624Y-174561444D01*
X487985163Y-174733715D01*
X487844504Y-174874374D01*
X487672232Y-174973835D01*
X487480088Y-175025319D01*
X487281167Y-175025319D01*
X487089023Y-174973834D01*
X486916752Y-174874372D01*
X486776093Y-174733713D01*
X486676632Y-174561442D01*
X486625147Y-174369298D01*
X486625148Y-174170376D01*
X486676633Y-173978232D01*
X486776094Y-173805961D01*
X486916753Y-173665302D01*
X487089025Y-173565841D01*
X487281169Y-173514357D01*
X487480091Y-173514357D01*
X487672234Y-173565842D01*
G37*
G36*
X457863046Y-173016088D02*
G01*
X458055190Y-173067573D01*
X458227461Y-173167034D01*
X458368120Y-173307693D01*
X458467581Y-173479965D01*
X458519065Y-173672109D01*
X458519065Y-173871030D01*
X458467580Y-174063174D01*
X458368119Y-174235445D01*
X458227459Y-174376104D01*
X458055188Y-174475565D01*
X457863044Y-174527050D01*
X457664122Y-174527049D01*
X457471978Y-174475564D01*
X457299707Y-174376103D01*
X457159048Y-174235444D01*
X457059587Y-174063172D01*
X457008103Y-173871028D01*
X457008103Y-173672106D01*
X457059588Y-173479963D01*
X457159049Y-173307691D01*
X457299709Y-173167032D01*
X457471980Y-173067572D01*
X457664124Y-173016087D01*
X457863046Y-173016088D01*
G37*
G36*
X483080678Y-176054351D02*
G01*
X483272822Y-176105836D01*
X483445093Y-176205297D01*
X483585752Y-176345956D01*
X483685213Y-176518228D01*
X483736697Y-176710372D01*
X483736697Y-176909294D01*
X483685212Y-177101437D01*
X483585751Y-177273709D01*
X483445091Y-177414368D01*
X483272820Y-177513828D01*
X483080676Y-177565313D01*
X482881754Y-177565312D01*
X482689610Y-177513827D01*
X482517339Y-177414366D01*
X482376680Y-177273707D01*
X482277219Y-177101435D01*
X482225735Y-176909291D01*
X482225735Y-176710370D01*
X482277220Y-176518226D01*
X482376681Y-176345955D01*
X482517341Y-176205296D01*
X482689612Y-176105835D01*
X482881756Y-176054350D01*
X483080678Y-176054351D01*
G37*
G36*
X474473996Y-181185823D02*
G01*
X474646268Y-181285284D01*
X474786926Y-181425944D01*
X474886387Y-181598215D01*
X474937872Y-181790359D01*
X474937871Y-181989281D01*
X474886386Y-182181425D01*
X474786925Y-182353696D01*
X474646266Y-182494355D01*
X474473994Y-182593816D01*
X474281850Y-182645300D01*
X474082929Y-182645300D01*
X473890785Y-182593815D01*
X473718513Y-182494354D01*
X473577855Y-182353694D01*
X473478394Y-182181423D01*
X473426909Y-181989279D01*
X473426910Y-181790357D01*
X473478395Y-181598213D01*
X473577856Y-181425942D01*
X473718515Y-181285283D01*
X473890787Y-181185822D01*
X474082931Y-181134338D01*
X474281853Y-181134338D01*
X474473996Y-181185823D01*
G37*
G36*
X451456071Y-176877563D02*
G01*
X451628342Y-176977024D01*
X451769001Y-177117684D01*
X451868462Y-177289955D01*
X451919946Y-177482099D01*
X451919946Y-177681021D01*
X451868461Y-177873165D01*
X451769000Y-178045436D01*
X451628340Y-178186095D01*
X451456069Y-178285556D01*
X451263925Y-178337040D01*
X451065003Y-178337040D01*
X450872859Y-178285555D01*
X450700588Y-178186094D01*
X450559929Y-178045434D01*
X450460468Y-177873163D01*
X450408984Y-177681019D01*
X450408984Y-177482097D01*
X450460469Y-177289953D01*
X450559930Y-177117682D01*
X450700590Y-176977023D01*
X450872861Y-176877562D01*
X451065005Y-176826078D01*
X451263927Y-176826078D01*
X451456071Y-176877563D01*
G37*
G36*
X471253428Y-165447591D02*
G01*
X471425699Y-165547053D01*
X471566358Y-165687712D01*
X471665819Y-165859983D01*
X471717303Y-166052127D01*
X471717303Y-166251049D01*
X471665818Y-166443193D01*
X471566357Y-166615464D01*
X471425697Y-166756123D01*
X471253426Y-166855584D01*
X471061282Y-166907068D01*
X470862360Y-166907068D01*
X470670216Y-166855583D01*
X470497945Y-166756122D01*
X470357286Y-166615463D01*
X470257825Y-166443191D01*
X470206341Y-166251047D01*
X470206341Y-166052125D01*
X470257826Y-165859981D01*
X470357288Y-165687710D01*
X470497947Y-165547051D01*
X470670218Y-165447591D01*
X470862362Y-165396106D01*
X471061284Y-165396106D01*
X471253428Y-165447591D01*
G37*
G36*
X477852547Y-161637601D02*
G01*
X478024818Y-161737062D01*
X478165477Y-161877721D01*
X478264938Y-162049993D01*
X478316422Y-162242137D01*
X478316422Y-162441059D01*
X478264937Y-162633202D01*
X478165476Y-162805474D01*
X478024816Y-162946133D01*
X477852545Y-163045593D01*
X477660401Y-163097078D01*
X477461479Y-163097078D01*
X477269335Y-163045592D01*
X477097064Y-162946131D01*
X476956405Y-162805472D01*
X476856945Y-162633200D01*
X476805460Y-162441057D01*
X476805460Y-162242135D01*
X476856945Y-162049991D01*
X476956407Y-161877720D01*
X477097066Y-161737061D01*
X477269337Y-161637600D01*
X477461481Y-161586116D01*
X477660403Y-161586116D01*
X477852547Y-161637601D01*
G37*
G36*
X475460697Y-162856113D02*
G01*
X475652841Y-162907598D01*
X475825112Y-163007059D01*
X475965771Y-163147718D01*
X476065231Y-163319990D01*
X476116716Y-163512134D01*
X476116716Y-163711056D01*
X476065231Y-163903199D01*
X475965769Y-164075471D01*
X475825110Y-164216129D01*
X475652839Y-164315590D01*
X475460695Y-164367075D01*
X475261773Y-164367074D01*
X475069629Y-164315589D01*
X474897358Y-164216128D01*
X474756699Y-164075469D01*
X474657238Y-163903197D01*
X474605754Y-163711053D01*
X474605754Y-163512132D01*
X474657239Y-163319988D01*
X474756700Y-163147716D01*
X474897359Y-163007058D01*
X475069631Y-162907597D01*
X475261775Y-162856112D01*
X475460697Y-162856113D01*
G37*
G36*
X476673703Y-179915826D02*
G01*
X476845974Y-180015288D01*
X476986633Y-180155947D01*
X477086094Y-180328218D01*
X477137578Y-180520362D01*
X477137578Y-180719284D01*
X477086093Y-180911428D01*
X476986631Y-181083699D01*
X476845972Y-181224358D01*
X476673701Y-181323819D01*
X476481557Y-181375303D01*
X476282635Y-181375303D01*
X476090491Y-181323818D01*
X475918220Y-181224357D01*
X475777561Y-181083698D01*
X475678100Y-180911426D01*
X475626616Y-180719282D01*
X475626616Y-180520360D01*
X475678101Y-180328216D01*
X475777562Y-180155945D01*
X475918222Y-180015286D01*
X476090493Y-179915826D01*
X476282637Y-179864341D01*
X476481559Y-179864341D01*
X476673703Y-179915826D01*
G37*
G36*
X472274290Y-182455820D02*
G01*
X472446561Y-182555281D01*
X472587220Y-182695941D01*
X472686681Y-182868212D01*
X472738165Y-183060356D01*
X472738165Y-183259278D01*
X472686680Y-183451422D01*
X472587219Y-183623693D01*
X472446560Y-183764352D01*
X472274288Y-183863812D01*
X472082144Y-183915297D01*
X471883222Y-183915297D01*
X471691078Y-183863812D01*
X471518807Y-183764350D01*
X471378148Y-183623691D01*
X471278688Y-183451420D01*
X471227203Y-183259276D01*
X471227203Y-183060354D01*
X471278688Y-182868210D01*
X471378150Y-182695939D01*
X471518809Y-182555280D01*
X471691080Y-182455819D01*
X471883224Y-182404335D01*
X472082146Y-182404335D01*
X472274290Y-182455820D01*
G37*
G36*
X478873409Y-178645830D02*
G01*
X479045680Y-178745291D01*
X479186339Y-178885950D01*
X479285800Y-179058222D01*
X479337284Y-179250365D01*
X479337284Y-179449287D01*
X479285799Y-179641431D01*
X479186338Y-179813702D01*
X479045679Y-179954361D01*
X478873407Y-180053822D01*
X478681263Y-180105306D01*
X478482341Y-180105306D01*
X478290197Y-180053821D01*
X478117926Y-179954360D01*
X477977267Y-179813701D01*
X477877807Y-179641429D01*
X477826322Y-179449285D01*
X477826322Y-179250363D01*
X477877807Y-179058220D01*
X477977269Y-178885948D01*
X478117928Y-178745289D01*
X478290199Y-178645829D01*
X478482343Y-178594344D01*
X478681265Y-178594344D01*
X478873409Y-178645830D01*
G37*
G36*
X467682734Y-184944329D02*
G01*
X467874877Y-184995814D01*
X468047149Y-185095275D01*
X468187807Y-185235934D01*
X468287268Y-185408206D01*
X468338753Y-185600350D01*
X468338752Y-185799272D01*
X468287267Y-185991415D01*
X468187806Y-186163687D01*
X468047147Y-186304345D01*
X467874875Y-186403806D01*
X467682731Y-186455291D01*
X467483810Y-186455290D01*
X467291666Y-186403805D01*
X467119394Y-186304344D01*
X466978736Y-186163685D01*
X466879275Y-185991413D01*
X466827790Y-185799269D01*
X466827791Y-185600348D01*
X466879276Y-185408204D01*
X466978737Y-185235933D01*
X467119396Y-185095274D01*
X467291668Y-184995813D01*
X467483812Y-184944328D01*
X467682734Y-184944329D01*
G37*
G36*
X470074584Y-183725817D02*
G01*
X470246855Y-183825278D01*
X470387514Y-183965937D01*
X470486975Y-184138209D01*
X470538459Y-184330353D01*
X470538459Y-184529275D01*
X470486974Y-184721419D01*
X470387512Y-184893690D01*
X470246853Y-185034349D01*
X470074582Y-185133809D01*
X469882438Y-185185294D01*
X469683516Y-185185294D01*
X469491372Y-185133809D01*
X469319101Y-185034347D01*
X469178442Y-184893688D01*
X469078981Y-184721417D01*
X469027497Y-184529273D01*
X469027497Y-184330351D01*
X469078982Y-184138207D01*
X469178443Y-183965936D01*
X469319103Y-183825277D01*
X469491374Y-183725816D01*
X469683518Y-183674332D01*
X469882440Y-183674332D01*
X470074584Y-183725817D01*
G37*
G36*
X463475465Y-187535808D02*
G01*
X463647736Y-187635269D01*
X463788395Y-187775928D01*
X463887855Y-187948200D01*
X463939340Y-188140343D01*
X463939340Y-188339265D01*
X463887855Y-188531409D01*
X463788393Y-188703680D01*
X463647734Y-188844339D01*
X463475463Y-188943800D01*
X463283319Y-188995284D01*
X463084397Y-188995284D01*
X462892253Y-188943799D01*
X462719982Y-188844338D01*
X462579323Y-188703679D01*
X462479862Y-188531407D01*
X462428378Y-188339263D01*
X462428378Y-188140341D01*
X462479863Y-187948198D01*
X462579324Y-187775926D01*
X462719984Y-187635267D01*
X462892255Y-187535807D01*
X463084399Y-187484322D01*
X463283321Y-187484322D01*
X463475465Y-187535808D01*
G37*
G36*
X480880972Y-177324348D02*
G01*
X481073115Y-177375833D01*
X481245387Y-177475294D01*
X481386045Y-177615953D01*
X481485506Y-177788225D01*
X481536991Y-177980369D01*
X481536990Y-178179290D01*
X481485505Y-178371434D01*
X481386044Y-178543706D01*
X481245385Y-178684364D01*
X481073113Y-178783825D01*
X480880969Y-178835310D01*
X480682048Y-178835309D01*
X480489904Y-178783824D01*
X480317633Y-178684363D01*
X480176974Y-178543704D01*
X480077513Y-178371432D01*
X480026028Y-178179288D01*
X480026029Y-177980366D01*
X480077514Y-177788223D01*
X480176975Y-177615951D01*
X480317634Y-177475293D01*
X480489906Y-177375832D01*
X480682050Y-177324347D01*
X480880972Y-177324348D01*
G37*
G36*
X495993802Y-183731302D02*
G01*
X495993798Y-185128302D01*
X494596798Y-185128298D01*
X494596802Y-183731298D01*
X495993802Y-183731302D01*
G37*
G36*
X483956474Y-183737246D02*
G01*
X484132606Y-183784441D01*
X484290521Y-183875613D01*
X484419458Y-184004551D01*
X484510631Y-184162467D01*
X484557824Y-184338599D01*
X484557824Y-184520944D01*
X484510629Y-184697076D01*
X484419456Y-184854991D01*
X484290518Y-184983928D01*
X484132603Y-185075100D01*
X483956471Y-185122294D01*
X483774126Y-185122294D01*
X483597994Y-185075099D01*
X483440079Y-184983926D01*
X483311142Y-184854988D01*
X483219969Y-184697072D01*
X483172776Y-184520940D01*
X483172776Y-184338595D01*
X483219971Y-184162464D01*
X483311144Y-184004548D01*
X483440082Y-183875611D01*
X483597997Y-183784439D01*
X483774129Y-183737245D01*
X483956474Y-183737246D01*
G37*
G36*
X467750002Y-142978162D02*
G01*
X467753800Y-142978349D01*
X467757590Y-142978660D01*
X467761367Y-142979094D01*
X467765128Y-142979652D01*
X467768869Y-142980333D01*
X467772586Y-142981135D01*
X467776275Y-142982059D01*
X467779931Y-142983104D01*
X467783551Y-142984267D01*
X467787131Y-142985548D01*
X467790668Y-142986945D01*
X467794157Y-142988458D01*
X467797594Y-142990083D01*
X467800976Y-142991821D01*
X467804300Y-142993668D01*
X467807561Y-142995623D01*
X467810757Y-142997683D01*
X467813884Y-142999847D01*
X467816938Y-143002112D01*
X467819916Y-143004476D01*
X467822816Y-143006936D01*
X467825633Y-143009490D01*
X467828366Y-143012134D01*
X467831010Y-143014867D01*
X467833564Y-143017684D01*
X467836024Y-143020584D01*
X467838388Y-143023562D01*
X467840653Y-143026616D01*
X467842817Y-143029743D01*
X467844877Y-143032939D01*
X467846832Y-143036200D01*
X467848679Y-143039524D01*
X467850417Y-143042906D01*
X467852042Y-143046343D01*
X467853555Y-143049832D01*
X467854952Y-143053369D01*
X467856233Y-143056949D01*
X467857396Y-143060569D01*
X467858441Y-143064225D01*
X467859365Y-143067914D01*
X467860167Y-143071631D01*
X467860848Y-143075372D01*
X467861406Y-143079133D01*
X467861840Y-143082910D01*
X467862151Y-143086700D01*
X467862338Y-143090498D01*
X467862400Y-143094300D01*
X467862400Y-144411900D01*
X467862338Y-144415702D01*
X467862151Y-144419500D01*
X467861840Y-144423290D01*
X467861406Y-144427067D01*
X467860848Y-144430828D01*
X467860167Y-144434569D01*
X467859365Y-144438286D01*
X467858441Y-144441975D01*
X467857396Y-144445631D01*
X467856233Y-144449251D01*
X467854952Y-144452831D01*
X467853555Y-144456368D01*
X467852042Y-144459857D01*
X467850417Y-144463294D01*
X467848679Y-144466676D01*
X467846832Y-144470000D01*
X467844877Y-144473261D01*
X467842817Y-144476457D01*
X467840653Y-144479584D01*
X467838388Y-144482638D01*
X467836024Y-144485616D01*
X467833564Y-144488516D01*
X467831010Y-144491333D01*
X467828366Y-144494066D01*
X467825633Y-144496710D01*
X467822816Y-144499264D01*
X467819916Y-144501724D01*
X467816938Y-144504088D01*
X467813884Y-144506353D01*
X467810757Y-144508517D01*
X467807561Y-144510577D01*
X467804300Y-144512532D01*
X467800976Y-144514379D01*
X467797594Y-144516117D01*
X467794157Y-144517742D01*
X467790668Y-144519255D01*
X467787131Y-144520652D01*
X467783551Y-144521933D01*
X467779931Y-144523096D01*
X467776275Y-144524141D01*
X467772586Y-144525065D01*
X467768869Y-144525867D01*
X467765128Y-144526548D01*
X467761367Y-144527106D01*
X467757590Y-144527540D01*
X467753800Y-144527851D01*
X467750002Y-144528038D01*
X467746200Y-144528100D01*
X467378600Y-144528100D01*
X467374798Y-144528038D01*
X467371000Y-144527851D01*
X467367210Y-144527540D01*
X467363433Y-144527106D01*
X467359672Y-144526548D01*
X467355931Y-144525867D01*
X467352214Y-144525065D01*
X467348525Y-144524141D01*
X467344869Y-144523096D01*
X467341249Y-144521933D01*
X467337669Y-144520652D01*
X467334132Y-144519255D01*
X467330643Y-144517742D01*
X467327206Y-144516117D01*
X467323824Y-144514379D01*
X467320500Y-144512532D01*
X467317239Y-144510577D01*
X467314043Y-144508517D01*
X467310916Y-144506353D01*
X467307862Y-144504088D01*
X467304884Y-144501724D01*
X467301984Y-144499264D01*
X467299167Y-144496710D01*
X467296434Y-144494066D01*
X467293790Y-144491333D01*
X467291236Y-144488516D01*
X467288776Y-144485616D01*
X467286412Y-144482638D01*
X467284147Y-144479584D01*
X467281983Y-144476457D01*
X467279923Y-144473261D01*
X467277968Y-144470000D01*
X467276121Y-144466676D01*
X467274383Y-144463294D01*
X467272758Y-144459857D01*
X467271245Y-144456368D01*
X467269848Y-144452831D01*
X467268567Y-144449251D01*
X467267404Y-144445631D01*
X467266359Y-144441975D01*
X467265435Y-144438286D01*
X467264633Y-144434569D01*
X467263952Y-144430828D01*
X467263394Y-144427067D01*
X467262960Y-144423290D01*
X467262649Y-144419500D01*
X467262462Y-144415702D01*
X467262400Y-144411900D01*
X467262400Y-143094300D01*
X467262462Y-143090498D01*
X467262649Y-143086700D01*
X467262960Y-143082910D01*
X467263394Y-143079133D01*
X467263952Y-143075372D01*
X467264633Y-143071631D01*
X467265435Y-143067914D01*
X467266359Y-143064225D01*
X467267404Y-143060569D01*
X467268567Y-143056949D01*
X467269848Y-143053369D01*
X467271245Y-143049832D01*
X467272758Y-143046343D01*
X467274383Y-143042906D01*
X467276121Y-143039524D01*
X467277968Y-143036200D01*
X467279923Y-143032939D01*
X467281983Y-143029743D01*
X467284147Y-143026616D01*
X467286412Y-143023562D01*
X467288776Y-143020584D01*
X467291236Y-143017684D01*
X467293790Y-143014867D01*
X467296434Y-143012134D01*
X467299167Y-143009490D01*
X467301984Y-143006936D01*
X467304884Y-143004476D01*
X467307862Y-143002112D01*
X467310916Y-142999847D01*
X467314043Y-142997683D01*
X467317239Y-142995623D01*
X467320500Y-142993668D01*
X467323824Y-142991821D01*
X467327206Y-142990083D01*
X467330643Y-142988458D01*
X467334132Y-142986945D01*
X467337669Y-142985548D01*
X467341249Y-142984267D01*
X467344869Y-142983104D01*
X467348525Y-142982059D01*
X467352214Y-142981135D01*
X467355931Y-142980333D01*
X467359672Y-142979652D01*
X467363433Y-142979094D01*
X467367210Y-142978660D01*
X467371000Y-142978349D01*
X467374798Y-142978162D01*
X467378600Y-142978100D01*
X467746200Y-142978100D01*
X467750002Y-142978162D01*
G37*
G36*
X469750002Y-142978162D02*
G01*
X469753800Y-142978349D01*
X469757590Y-142978660D01*
X469761367Y-142979094D01*
X469765128Y-142979652D01*
X469768869Y-142980333D01*
X469772586Y-142981135D01*
X469776275Y-142982059D01*
X469779931Y-142983104D01*
X469783551Y-142984267D01*
X469787131Y-142985548D01*
X469790668Y-142986945D01*
X469794157Y-142988458D01*
X469797594Y-142990083D01*
X469800976Y-142991821D01*
X469804300Y-142993668D01*
X469807561Y-142995623D01*
X469810757Y-142997683D01*
X469813884Y-142999847D01*
X469816938Y-143002112D01*
X469819916Y-143004476D01*
X469822816Y-143006936D01*
X469825633Y-143009490D01*
X469828366Y-143012134D01*
X469831010Y-143014867D01*
X469833564Y-143017684D01*
X469836024Y-143020584D01*
X469838388Y-143023562D01*
X469840653Y-143026616D01*
X469842817Y-143029743D01*
X469844877Y-143032939D01*
X469846832Y-143036200D01*
X469848679Y-143039524D01*
X469850417Y-143042906D01*
X469852042Y-143046343D01*
X469853555Y-143049832D01*
X469854952Y-143053369D01*
X469856233Y-143056949D01*
X469857396Y-143060569D01*
X469858441Y-143064225D01*
X469859365Y-143067914D01*
X469860167Y-143071631D01*
X469860848Y-143075372D01*
X469861406Y-143079133D01*
X469861840Y-143082910D01*
X469862151Y-143086700D01*
X469862338Y-143090498D01*
X469862400Y-143094300D01*
X469862400Y-144411900D01*
X469862338Y-144415702D01*
X469862151Y-144419500D01*
X469861840Y-144423290D01*
X469861406Y-144427067D01*
X469860848Y-144430828D01*
X469860167Y-144434569D01*
X469859365Y-144438286D01*
X469858441Y-144441975D01*
X469857396Y-144445631D01*
X469856233Y-144449251D01*
X469854952Y-144452831D01*
X469853555Y-144456368D01*
X469852042Y-144459857D01*
X469850417Y-144463294D01*
X469848679Y-144466676D01*
X469846832Y-144470000D01*
X469844877Y-144473261D01*
X469842817Y-144476457D01*
X469840653Y-144479584D01*
X469838388Y-144482638D01*
X469836024Y-144485616D01*
X469833564Y-144488516D01*
X469831010Y-144491333D01*
X469828366Y-144494066D01*
X469825633Y-144496710D01*
X469822816Y-144499264D01*
X469819916Y-144501724D01*
X469816938Y-144504088D01*
X469813884Y-144506353D01*
X469810757Y-144508517D01*
X469807561Y-144510577D01*
X469804300Y-144512532D01*
X469800976Y-144514379D01*
X469797594Y-144516117D01*
X469794157Y-144517742D01*
X469790668Y-144519255D01*
X469787131Y-144520652D01*
X469783551Y-144521933D01*
X469779931Y-144523096D01*
X469776275Y-144524141D01*
X469772586Y-144525065D01*
X469768869Y-144525867D01*
X469765128Y-144526548D01*
X469761367Y-144527106D01*
X469757590Y-144527540D01*
X469753800Y-144527851D01*
X469750002Y-144528038D01*
X469746200Y-144528100D01*
X469378600Y-144528100D01*
X469374798Y-144528038D01*
X469371000Y-144527851D01*
X469367210Y-144527540D01*
X469363433Y-144527106D01*
X469359672Y-144526548D01*
X469355931Y-144525867D01*
X469352214Y-144525065D01*
X469348525Y-144524141D01*
X469344869Y-144523096D01*
X469341249Y-144521933D01*
X469337669Y-144520652D01*
X469334132Y-144519255D01*
X469330643Y-144517742D01*
X469327206Y-144516117D01*
X469323824Y-144514379D01*
X469320500Y-144512532D01*
X469317239Y-144510577D01*
X469314043Y-144508517D01*
X469310916Y-144506353D01*
X469307862Y-144504088D01*
X469304884Y-144501724D01*
X469301984Y-144499264D01*
X469299167Y-144496710D01*
X469296434Y-144494066D01*
X469293790Y-144491333D01*
X469291236Y-144488516D01*
X469288776Y-144485616D01*
X469286412Y-144482638D01*
X469284147Y-144479584D01*
X469281983Y-144476457D01*
X469279923Y-144473261D01*
X469277968Y-144470000D01*
X469276121Y-144466676D01*
X469274383Y-144463294D01*
X469272758Y-144459857D01*
X469271245Y-144456368D01*
X469269848Y-144452831D01*
X469268567Y-144449251D01*
X469267404Y-144445631D01*
X469266359Y-144441975D01*
X469265435Y-144438286D01*
X469264633Y-144434569D01*
X469263952Y-144430828D01*
X469263394Y-144427067D01*
X469262960Y-144423290D01*
X469262649Y-144419500D01*
X469262462Y-144415702D01*
X469262400Y-144411900D01*
X469262400Y-143094300D01*
X469262462Y-143090498D01*
X469262649Y-143086700D01*
X469262960Y-143082910D01*
X469263394Y-143079133D01*
X469263952Y-143075372D01*
X469264633Y-143071631D01*
X469265435Y-143067914D01*
X469266359Y-143064225D01*
X469267404Y-143060569D01*
X469268567Y-143056949D01*
X469269848Y-143053369D01*
X469271245Y-143049832D01*
X469272758Y-143046343D01*
X469274383Y-143042906D01*
X469276121Y-143039524D01*
X469277968Y-143036200D01*
X469279923Y-143032939D01*
X469281983Y-143029743D01*
X469284147Y-143026616D01*
X469286412Y-143023562D01*
X469288776Y-143020584D01*
X469291236Y-143017684D01*
X469293790Y-143014867D01*
X469296434Y-143012134D01*
X469299167Y-143009490D01*
X469301984Y-143006936D01*
X469304884Y-143004476D01*
X469307862Y-143002112D01*
X469310916Y-142999847D01*
X469314043Y-142997683D01*
X469317239Y-142995623D01*
X469320500Y-142993668D01*
X469323824Y-142991821D01*
X469327206Y-142990083D01*
X469330643Y-142988458D01*
X469334132Y-142986945D01*
X469337669Y-142985548D01*
X469341249Y-142984267D01*
X469344869Y-142983104D01*
X469348525Y-142982059D01*
X469352214Y-142981135D01*
X469355931Y-142980333D01*
X469359672Y-142979652D01*
X469363433Y-142979094D01*
X469367210Y-142978660D01*
X469371000Y-142978349D01*
X469374798Y-142978162D01*
X469378600Y-142978100D01*
X469746200Y-142978100D01*
X469750002Y-142978162D01*
G37*
G36*
X466750002Y-142978162D02*
G01*
X466753800Y-142978349D01*
X466757590Y-142978660D01*
X466761367Y-142979094D01*
X466765128Y-142979652D01*
X466768869Y-142980333D01*
X466772586Y-142981135D01*
X466776275Y-142982059D01*
X466779931Y-142983104D01*
X466783551Y-142984267D01*
X466787131Y-142985548D01*
X466790668Y-142986945D01*
X466794157Y-142988458D01*
X466797594Y-142990083D01*
X466800976Y-142991821D01*
X466804300Y-142993668D01*
X466807561Y-142995623D01*
X466810757Y-142997683D01*
X466813884Y-142999847D01*
X466816938Y-143002112D01*
X466819916Y-143004476D01*
X466822816Y-143006936D01*
X466825633Y-143009490D01*
X466828366Y-143012134D01*
X466831010Y-143014867D01*
X466833564Y-143017684D01*
X466836024Y-143020584D01*
X466838388Y-143023562D01*
X466840653Y-143026616D01*
X466842817Y-143029743D01*
X466844877Y-143032939D01*
X466846832Y-143036200D01*
X466848679Y-143039524D01*
X466850417Y-143042906D01*
X466852042Y-143046343D01*
X466853555Y-143049832D01*
X466854952Y-143053369D01*
X466856233Y-143056949D01*
X466857396Y-143060569D01*
X466858441Y-143064225D01*
X466859365Y-143067914D01*
X466860167Y-143071631D01*
X466860848Y-143075372D01*
X466861406Y-143079133D01*
X466861840Y-143082910D01*
X466862151Y-143086700D01*
X466862338Y-143090498D01*
X466862400Y-143094300D01*
X466862400Y-144411900D01*
X466862338Y-144415702D01*
X466862151Y-144419500D01*
X466861840Y-144423290D01*
X466861406Y-144427067D01*
X466860848Y-144430828D01*
X466860167Y-144434569D01*
X466859365Y-144438286D01*
X466858441Y-144441975D01*
X466857396Y-144445631D01*
X466856233Y-144449251D01*
X466854952Y-144452831D01*
X466853555Y-144456368D01*
X466852042Y-144459857D01*
X466850417Y-144463294D01*
X466848679Y-144466676D01*
X466846832Y-144470000D01*
X466844877Y-144473261D01*
X466842817Y-144476457D01*
X466840653Y-144479584D01*
X466838388Y-144482638D01*
X466836024Y-144485616D01*
X466833564Y-144488516D01*
X466831010Y-144491333D01*
X466828366Y-144494066D01*
X466825633Y-144496710D01*
X466822816Y-144499264D01*
X466819916Y-144501724D01*
X466816938Y-144504088D01*
X466813884Y-144506353D01*
X466810757Y-144508517D01*
X466807561Y-144510577D01*
X466804300Y-144512532D01*
X466800976Y-144514379D01*
X466797594Y-144516117D01*
X466794157Y-144517742D01*
X466790668Y-144519255D01*
X466787131Y-144520652D01*
X466783551Y-144521933D01*
X466779931Y-144523096D01*
X466776275Y-144524141D01*
X466772586Y-144525065D01*
X466768869Y-144525867D01*
X466765128Y-144526548D01*
X466761367Y-144527106D01*
X466757590Y-144527540D01*
X466753800Y-144527851D01*
X466750002Y-144528038D01*
X466746200Y-144528100D01*
X466378600Y-144528100D01*
X466374798Y-144528038D01*
X466371000Y-144527851D01*
X466367210Y-144527540D01*
X466363433Y-144527106D01*
X466359672Y-144526548D01*
X466355931Y-144525867D01*
X466352214Y-144525065D01*
X466348525Y-144524141D01*
X466344869Y-144523096D01*
X466341249Y-144521933D01*
X466337669Y-144520652D01*
X466334132Y-144519255D01*
X466330643Y-144517742D01*
X466327206Y-144516117D01*
X466323824Y-144514379D01*
X466320500Y-144512532D01*
X466317239Y-144510577D01*
X466314043Y-144508517D01*
X466310916Y-144506353D01*
X466307862Y-144504088D01*
X466304884Y-144501724D01*
X466301984Y-144499264D01*
X466299167Y-144496710D01*
X466296434Y-144494066D01*
X466293790Y-144491333D01*
X466291236Y-144488516D01*
X466288776Y-144485616D01*
X466286412Y-144482638D01*
X466284147Y-144479584D01*
X466281983Y-144476457D01*
X466279923Y-144473261D01*
X466277968Y-144470000D01*
X466276121Y-144466676D01*
X466274383Y-144463294D01*
X466272758Y-144459857D01*
X466271245Y-144456368D01*
X466269848Y-144452831D01*
X466268567Y-144449251D01*
X466267404Y-144445631D01*
X466266359Y-144441975D01*
X466265435Y-144438286D01*
X466264633Y-144434569D01*
X466263952Y-144430828D01*
X466263394Y-144427067D01*
X466262960Y-144423290D01*
X466262649Y-144419500D01*
X466262462Y-144415702D01*
X466262400Y-144411900D01*
X466262400Y-143094300D01*
X466262462Y-143090498D01*
X466262649Y-143086700D01*
X466262960Y-143082910D01*
X466263394Y-143079133D01*
X466263952Y-143075372D01*
X466264633Y-143071631D01*
X466265435Y-143067914D01*
X466266359Y-143064225D01*
X466267404Y-143060569D01*
X466268567Y-143056949D01*
X466269848Y-143053369D01*
X466271245Y-143049832D01*
X466272758Y-143046343D01*
X466274383Y-143042906D01*
X466276121Y-143039524D01*
X466277968Y-143036200D01*
X466279923Y-143032939D01*
X466281983Y-143029743D01*
X466284147Y-143026616D01*
X466286412Y-143023562D01*
X466288776Y-143020584D01*
X466291236Y-143017684D01*
X466293790Y-143014867D01*
X466296434Y-143012134D01*
X466299167Y-143009490D01*
X466301984Y-143006936D01*
X466304884Y-143004476D01*
X466307862Y-143002112D01*
X466310916Y-142999847D01*
X466314043Y-142997683D01*
X466317239Y-142995623D01*
X466320500Y-142993668D01*
X466323824Y-142991821D01*
X466327206Y-142990083D01*
X466330643Y-142988458D01*
X466334132Y-142986945D01*
X466337669Y-142985548D01*
X466341249Y-142984267D01*
X466344869Y-142983104D01*
X466348525Y-142982059D01*
X466352214Y-142981135D01*
X466355931Y-142980333D01*
X466359672Y-142979652D01*
X466363433Y-142979094D01*
X466367210Y-142978660D01*
X466371000Y-142978349D01*
X466374798Y-142978162D01*
X466378600Y-142978100D01*
X466746200Y-142978100D01*
X466750002Y-142978162D01*
G37*
G36*
X468750002Y-142978162D02*
G01*
X468753800Y-142978349D01*
X468757590Y-142978660D01*
X468761367Y-142979094D01*
X468765128Y-142979652D01*
X468768869Y-142980333D01*
X468772586Y-142981135D01*
X468776275Y-142982059D01*
X468779931Y-142983104D01*
X468783551Y-142984267D01*
X468787131Y-142985548D01*
X468790668Y-142986945D01*
X468794157Y-142988458D01*
X468797594Y-142990083D01*
X468800976Y-142991821D01*
X468804300Y-142993668D01*
X468807561Y-142995623D01*
X468810757Y-142997683D01*
X468813884Y-142999847D01*
X468816938Y-143002112D01*
X468819916Y-143004476D01*
X468822816Y-143006936D01*
X468825633Y-143009490D01*
X468828366Y-143012134D01*
X468831010Y-143014867D01*
X468833564Y-143017684D01*
X468836024Y-143020584D01*
X468838388Y-143023562D01*
X468840653Y-143026616D01*
X468842817Y-143029743D01*
X468844877Y-143032939D01*
X468846832Y-143036200D01*
X468848679Y-143039524D01*
X468850417Y-143042906D01*
X468852042Y-143046343D01*
X468853555Y-143049832D01*
X468854952Y-143053369D01*
X468856233Y-143056949D01*
X468857396Y-143060569D01*
X468858441Y-143064225D01*
X468859365Y-143067914D01*
X468860167Y-143071631D01*
X468860848Y-143075372D01*
X468861406Y-143079133D01*
X468861840Y-143082910D01*
X468862151Y-143086700D01*
X468862338Y-143090498D01*
X468862400Y-143094300D01*
X468862400Y-144411900D01*
X468862338Y-144415702D01*
X468862151Y-144419500D01*
X468861840Y-144423290D01*
X468861406Y-144427067D01*
X468860848Y-144430828D01*
X468860167Y-144434569D01*
X468859365Y-144438286D01*
X468858441Y-144441975D01*
X468857396Y-144445631D01*
X468856233Y-144449251D01*
X468854952Y-144452831D01*
X468853555Y-144456368D01*
X468852042Y-144459857D01*
X468850417Y-144463294D01*
X468848679Y-144466676D01*
X468846832Y-144470000D01*
X468844877Y-144473261D01*
X468842817Y-144476457D01*
X468840653Y-144479584D01*
X468838388Y-144482638D01*
X468836024Y-144485616D01*
X468833564Y-144488516D01*
X468831010Y-144491333D01*
X468828366Y-144494066D01*
X468825633Y-144496710D01*
X468822816Y-144499264D01*
X468819916Y-144501724D01*
X468816938Y-144504088D01*
X468813884Y-144506353D01*
X468810757Y-144508517D01*
X468807561Y-144510577D01*
X468804300Y-144512532D01*
X468800976Y-144514379D01*
X468797594Y-144516117D01*
X468794157Y-144517742D01*
X468790668Y-144519255D01*
X468787131Y-144520652D01*
X468783551Y-144521933D01*
X468779931Y-144523096D01*
X468776275Y-144524141D01*
X468772586Y-144525065D01*
X468768869Y-144525867D01*
X468765128Y-144526548D01*
X468761367Y-144527106D01*
X468757590Y-144527540D01*
X468753800Y-144527851D01*
X468750002Y-144528038D01*
X468746200Y-144528100D01*
X468378600Y-144528100D01*
X468374798Y-144528038D01*
X468371000Y-144527851D01*
X468367210Y-144527540D01*
X468363433Y-144527106D01*
X468359672Y-144526548D01*
X468355931Y-144525867D01*
X468352214Y-144525065D01*
X468348525Y-144524141D01*
X468344869Y-144523096D01*
X468341249Y-144521933D01*
X468337669Y-144520652D01*
X468334132Y-144519255D01*
X468330643Y-144517742D01*
X468327206Y-144516117D01*
X468323824Y-144514379D01*
X468320500Y-144512532D01*
X468317239Y-144510577D01*
X468314043Y-144508517D01*
X468310916Y-144506353D01*
X468307862Y-144504088D01*
X468304884Y-144501724D01*
X468301984Y-144499264D01*
X468299167Y-144496710D01*
X468296434Y-144494066D01*
X468293790Y-144491333D01*
X468291236Y-144488516D01*
X468288776Y-144485616D01*
X468286412Y-144482638D01*
X468284147Y-144479584D01*
X468281983Y-144476457D01*
X468279923Y-144473261D01*
X468277968Y-144470000D01*
X468276121Y-144466676D01*
X468274383Y-144463294D01*
X468272758Y-144459857D01*
X468271245Y-144456368D01*
X468269848Y-144452831D01*
X468268567Y-144449251D01*
X468267404Y-144445631D01*
X468266359Y-144441975D01*
X468265435Y-144438286D01*
X468264633Y-144434569D01*
X468263952Y-144430828D01*
X468263394Y-144427067D01*
X468262960Y-144423290D01*
X468262649Y-144419500D01*
X468262462Y-144415702D01*
X468262400Y-144411900D01*
X468262400Y-143094300D01*
X468262462Y-143090498D01*
X468262649Y-143086700D01*
X468262960Y-143082910D01*
X468263394Y-143079133D01*
X468263952Y-143075372D01*
X468264633Y-143071631D01*
X468265435Y-143067914D01*
X468266359Y-143064225D01*
X468267404Y-143060569D01*
X468268567Y-143056949D01*
X468269848Y-143053369D01*
X468271245Y-143049832D01*
X468272758Y-143046343D01*
X468274383Y-143042906D01*
X468276121Y-143039524D01*
X468277968Y-143036200D01*
X468279923Y-143032939D01*
X468281983Y-143029743D01*
X468284147Y-143026616D01*
X468286412Y-143023562D01*
X468288776Y-143020584D01*
X468291236Y-143017684D01*
X468293790Y-143014867D01*
X468296434Y-143012134D01*
X468299167Y-143009490D01*
X468301984Y-143006936D01*
X468304884Y-143004476D01*
X468307862Y-143002112D01*
X468310916Y-142999847D01*
X468314043Y-142997683D01*
X468317239Y-142995623D01*
X468320500Y-142993668D01*
X468323824Y-142991821D01*
X468327206Y-142990083D01*
X468330643Y-142988458D01*
X468334132Y-142986945D01*
X468337669Y-142985548D01*
X468341249Y-142984267D01*
X468344869Y-142983104D01*
X468348525Y-142982059D01*
X468352214Y-142981135D01*
X468355931Y-142980333D01*
X468359672Y-142979652D01*
X468363433Y-142979094D01*
X468367210Y-142978660D01*
X468371000Y-142978349D01*
X468374798Y-142978162D01*
X468378600Y-142978100D01*
X468746200Y-142978100D01*
X468750002Y-142978162D01*
G37*
G36*
X471331817Y-146728172D02*
G01*
X471336229Y-146728389D01*
X471340632Y-146728750D01*
X471345021Y-146729255D01*
X471349391Y-146729903D01*
X471353737Y-146730694D01*
X471358055Y-146731627D01*
X471362341Y-146732700D01*
X471366588Y-146733913D01*
X471370794Y-146735264D01*
X471374954Y-146736753D01*
X471379062Y-146738376D01*
X471383115Y-146740133D01*
X471387109Y-146742022D01*
X471391039Y-146744041D01*
X471394900Y-146746187D01*
X471398689Y-146748458D01*
X471402402Y-146750852D01*
X471406034Y-146753366D01*
X471409583Y-146755997D01*
X471413043Y-146758744D01*
X471416412Y-146761602D01*
X471419685Y-146764568D01*
X471422859Y-146767641D01*
X471425932Y-146770815D01*
X471428898Y-146774088D01*
X471431756Y-146777457D01*
X471434503Y-146780917D01*
X471437134Y-146784466D01*
X471439648Y-146788098D01*
X471442042Y-146791811D01*
X471444313Y-146795600D01*
X471446459Y-146799461D01*
X471448478Y-146803391D01*
X471450367Y-146807385D01*
X471452124Y-146811438D01*
X471453747Y-146815546D01*
X471455236Y-146819706D01*
X471456587Y-146823912D01*
X471457800Y-146828159D01*
X471458873Y-146832445D01*
X471459806Y-146836763D01*
X471460597Y-146841109D01*
X471461245Y-146845479D01*
X471461750Y-146849868D01*
X471462111Y-146854271D01*
X471462328Y-146858683D01*
X471462400Y-146863100D01*
X471462400Y-148393100D01*
X471462328Y-148397517D01*
X471462111Y-148401929D01*
X471461750Y-148406332D01*
X471461245Y-148410721D01*
X471460597Y-148415091D01*
X471459806Y-148419437D01*
X471458873Y-148423755D01*
X471457800Y-148428041D01*
X471456587Y-148432288D01*
X471455236Y-148436494D01*
X471453747Y-148440654D01*
X471452124Y-148444762D01*
X471450367Y-148448815D01*
X471448478Y-148452809D01*
X471446459Y-148456739D01*
X471444313Y-148460600D01*
X471442042Y-148464389D01*
X471439648Y-148468102D01*
X471437134Y-148471734D01*
X471434503Y-148475283D01*
X471431756Y-148478743D01*
X471428898Y-148482112D01*
X471425932Y-148485385D01*
X471422859Y-148488559D01*
X471419685Y-148491632D01*
X471416412Y-148494598D01*
X471413043Y-148497456D01*
X471409583Y-148500203D01*
X471406034Y-148502834D01*
X471402402Y-148505348D01*
X471398689Y-148507742D01*
X471394900Y-148510013D01*
X471391039Y-148512159D01*
X471387109Y-148514178D01*
X471383115Y-148516067D01*
X471379062Y-148517824D01*
X471374954Y-148519447D01*
X471370794Y-148520936D01*
X471366588Y-148522287D01*
X471362341Y-148523500D01*
X471358055Y-148524573D01*
X471353737Y-148525506D01*
X471349391Y-148526297D01*
X471345021Y-148526945D01*
X471340632Y-148527450D01*
X471336229Y-148527811D01*
X471331817Y-148528028D01*
X471327400Y-148528100D01*
X470397400Y-148528100D01*
X470392983Y-148528028D01*
X470388571Y-148527811D01*
X470384168Y-148527450D01*
X470379779Y-148526945D01*
X470375409Y-148526297D01*
X470371063Y-148525506D01*
X470366745Y-148524573D01*
X470362459Y-148523500D01*
X470358212Y-148522287D01*
X470354006Y-148520936D01*
X470349846Y-148519447D01*
X470345738Y-148517824D01*
X470341685Y-148516067D01*
X470337691Y-148514178D01*
X470333761Y-148512159D01*
X470329900Y-148510013D01*
X470326111Y-148507742D01*
X470322398Y-148505348D01*
X470318766Y-148502834D01*
X470315217Y-148500203D01*
X470311757Y-148497456D01*
X470308388Y-148494598D01*
X470305115Y-148491632D01*
X470301941Y-148488559D01*
X470298868Y-148485385D01*
X470295902Y-148482112D01*
X470293044Y-148478743D01*
X470290297Y-148475283D01*
X470287666Y-148471734D01*
X470285152Y-148468102D01*
X470282758Y-148464389D01*
X470280487Y-148460600D01*
X470278341Y-148456739D01*
X470276322Y-148452809D01*
X470274433Y-148448815D01*
X470272676Y-148444762D01*
X470271053Y-148440654D01*
X470269564Y-148436494D01*
X470268213Y-148432288D01*
X470267000Y-148428041D01*
X470265927Y-148423755D01*
X470264994Y-148419437D01*
X470264203Y-148415091D01*
X470263555Y-148410721D01*
X470263050Y-148406332D01*
X470262689Y-148401929D01*
X470262472Y-148397517D01*
X470262400Y-148393100D01*
X470262400Y-146863100D01*
X470262472Y-146858683D01*
X470262689Y-146854271D01*
X470263050Y-146849868D01*
X470263555Y-146845479D01*
X470264203Y-146841109D01*
X470264994Y-146836763D01*
X470265927Y-146832445D01*
X470267000Y-146828159D01*
X470268213Y-146823912D01*
X470269564Y-146819706D01*
X470271053Y-146815546D01*
X470272676Y-146811438D01*
X470274433Y-146807385D01*
X470276322Y-146803391D01*
X470278341Y-146799461D01*
X470280487Y-146795600D01*
X470282758Y-146791811D01*
X470285152Y-146788098D01*
X470287666Y-146784466D01*
X470290297Y-146780917D01*
X470293044Y-146777457D01*
X470295902Y-146774088D01*
X470298868Y-146770815D01*
X470301941Y-146767641D01*
X470305115Y-146764568D01*
X470308388Y-146761602D01*
X470311757Y-146758744D01*
X470315217Y-146755997D01*
X470318766Y-146753366D01*
X470322398Y-146750852D01*
X470326111Y-146748458D01*
X470329900Y-146746187D01*
X470333761Y-146744041D01*
X470337691Y-146742022D01*
X470341685Y-146740133D01*
X470345738Y-146738376D01*
X470349846Y-146736753D01*
X470354006Y-146735264D01*
X470358212Y-146733913D01*
X470362459Y-146732700D01*
X470366745Y-146731627D01*
X470371063Y-146730694D01*
X470375409Y-146729903D01*
X470379779Y-146729255D01*
X470384168Y-146728750D01*
X470388571Y-146728389D01*
X470392983Y-146728172D01*
X470397400Y-146728100D01*
X471327400Y-146728100D01*
X471331817Y-146728172D01*
G37*
G36*
X465731817Y-146728172D02*
G01*
X465736229Y-146728389D01*
X465740632Y-146728750D01*
X465745021Y-146729255D01*
X465749391Y-146729903D01*
X465753737Y-146730694D01*
X465758055Y-146731627D01*
X465762341Y-146732700D01*
X465766588Y-146733913D01*
X465770794Y-146735264D01*
X465774954Y-146736753D01*
X465779062Y-146738376D01*
X465783115Y-146740133D01*
X465787109Y-146742022D01*
X465791039Y-146744041D01*
X465794900Y-146746187D01*
X465798689Y-146748458D01*
X465802402Y-146750852D01*
X465806034Y-146753366D01*
X465809583Y-146755997D01*
X465813043Y-146758744D01*
X465816412Y-146761602D01*
X465819685Y-146764568D01*
X465822859Y-146767641D01*
X465825932Y-146770815D01*
X465828898Y-146774088D01*
X465831756Y-146777457D01*
X465834503Y-146780917D01*
X465837134Y-146784466D01*
X465839648Y-146788098D01*
X465842042Y-146791811D01*
X465844313Y-146795600D01*
X465846459Y-146799461D01*
X465848478Y-146803391D01*
X465850367Y-146807385D01*
X465852124Y-146811438D01*
X465853747Y-146815546D01*
X465855236Y-146819706D01*
X465856587Y-146823912D01*
X465857800Y-146828159D01*
X465858873Y-146832445D01*
X465859806Y-146836763D01*
X465860597Y-146841109D01*
X465861245Y-146845479D01*
X465861750Y-146849868D01*
X465862111Y-146854271D01*
X465862328Y-146858683D01*
X465862400Y-146863100D01*
X465862400Y-148393100D01*
X465862328Y-148397517D01*
X465862111Y-148401929D01*
X465861750Y-148406332D01*
X465861245Y-148410721D01*
X465860597Y-148415091D01*
X465859806Y-148419437D01*
X465858873Y-148423755D01*
X465857800Y-148428041D01*
X465856587Y-148432288D01*
X465855236Y-148436494D01*
X465853747Y-148440654D01*
X465852124Y-148444762D01*
X465850367Y-148448815D01*
X465848478Y-148452809D01*
X465846459Y-148456739D01*
X465844313Y-148460600D01*
X465842042Y-148464389D01*
X465839648Y-148468102D01*
X465837134Y-148471734D01*
X465834503Y-148475283D01*
X465831756Y-148478743D01*
X465828898Y-148482112D01*
X465825932Y-148485385D01*
X465822859Y-148488559D01*
X465819685Y-148491632D01*
X465816412Y-148494598D01*
X465813043Y-148497456D01*
X465809583Y-148500203D01*
X465806034Y-148502834D01*
X465802402Y-148505348D01*
X465798689Y-148507742D01*
X465794900Y-148510013D01*
X465791039Y-148512159D01*
X465787109Y-148514178D01*
X465783115Y-148516067D01*
X465779062Y-148517824D01*
X465774954Y-148519447D01*
X465770794Y-148520936D01*
X465766588Y-148522287D01*
X465762341Y-148523500D01*
X465758055Y-148524573D01*
X465753737Y-148525506D01*
X465749391Y-148526297D01*
X465745021Y-148526945D01*
X465740632Y-148527450D01*
X465736229Y-148527811D01*
X465731817Y-148528028D01*
X465727400Y-148528100D01*
X464797400Y-148528100D01*
X464792983Y-148528028D01*
X464788571Y-148527811D01*
X464784168Y-148527450D01*
X464779779Y-148526945D01*
X464775409Y-148526297D01*
X464771063Y-148525506D01*
X464766745Y-148524573D01*
X464762459Y-148523500D01*
X464758212Y-148522287D01*
X464754006Y-148520936D01*
X464749846Y-148519447D01*
X464745738Y-148517824D01*
X464741685Y-148516067D01*
X464737691Y-148514178D01*
X464733761Y-148512159D01*
X464729900Y-148510013D01*
X464726111Y-148507742D01*
X464722398Y-148505348D01*
X464718766Y-148502834D01*
X464715217Y-148500203D01*
X464711757Y-148497456D01*
X464708388Y-148494598D01*
X464705115Y-148491632D01*
X464701941Y-148488559D01*
X464698868Y-148485385D01*
X464695902Y-148482112D01*
X464693044Y-148478743D01*
X464690297Y-148475283D01*
X464687666Y-148471734D01*
X464685152Y-148468102D01*
X464682758Y-148464389D01*
X464680487Y-148460600D01*
X464678341Y-148456739D01*
X464676322Y-148452809D01*
X464674433Y-148448815D01*
X464672676Y-148444762D01*
X464671053Y-148440654D01*
X464669564Y-148436494D01*
X464668213Y-148432288D01*
X464667000Y-148428041D01*
X464665927Y-148423755D01*
X464664994Y-148419437D01*
X464664203Y-148415091D01*
X464663555Y-148410721D01*
X464663050Y-148406332D01*
X464662689Y-148401929D01*
X464662472Y-148397517D01*
X464662400Y-148393100D01*
X464662400Y-146863100D01*
X464662472Y-146858683D01*
X464662689Y-146854271D01*
X464663050Y-146849868D01*
X464663555Y-146845479D01*
X464664203Y-146841109D01*
X464664994Y-146836763D01*
X464665927Y-146832445D01*
X464667000Y-146828159D01*
X464668213Y-146823912D01*
X464669564Y-146819706D01*
X464671053Y-146815546D01*
X464672676Y-146811438D01*
X464674433Y-146807385D01*
X464676322Y-146803391D01*
X464678341Y-146799461D01*
X464680487Y-146795600D01*
X464682758Y-146791811D01*
X464685152Y-146788098D01*
X464687666Y-146784466D01*
X464690297Y-146780917D01*
X464693044Y-146777457D01*
X464695902Y-146774088D01*
X464698868Y-146770815D01*
X464701941Y-146767641D01*
X464705115Y-146764568D01*
X464708388Y-146761602D01*
X464711757Y-146758744D01*
X464715217Y-146755997D01*
X464718766Y-146753366D01*
X464722398Y-146750852D01*
X464726111Y-146748458D01*
X464729900Y-146746187D01*
X464733761Y-146744041D01*
X464737691Y-146742022D01*
X464741685Y-146740133D01*
X464745738Y-146738376D01*
X464749846Y-146736753D01*
X464754006Y-146735264D01*
X464758212Y-146733913D01*
X464762459Y-146732700D01*
X464766745Y-146731627D01*
X464771063Y-146730694D01*
X464775409Y-146729903D01*
X464779779Y-146729255D01*
X464784168Y-146728750D01*
X464788571Y-146728389D01*
X464792983Y-146728172D01*
X464797400Y-146728100D01*
X465727400Y-146728100D01*
X465731817Y-146728172D01*
G37*
G36*
X468563315Y-198767325D02*
G01*
X468800697Y-198904377D01*
X468994519Y-199098198D01*
X469131572Y-199335580D01*
X469202517Y-199600345D01*
X469202517Y-199874450D01*
X469131575Y-200139215D01*
X468994523Y-200376597D01*
X468800702Y-200570419D01*
X468563320Y-200707472D01*
X468298555Y-200778417D01*
X468024450Y-200778417D01*
X467759685Y-200707475D01*
X467522303Y-200570423D01*
X467328481Y-200376602D01*
X467191428Y-200139220D01*
X467120483Y-199874455D01*
X467120483Y-199600350D01*
X467191425Y-199335585D01*
X467328477Y-199098203D01*
X467522298Y-198904381D01*
X467759680Y-198767328D01*
X468024445Y-198696383D01*
X468298550Y-198696383D01*
X468563315Y-198767325D01*
G37*
G36*
X478563315Y-198767299D02*
G01*
X478800697Y-198904351D01*
X478994519Y-199098172D01*
X479131572Y-199335553D01*
X479202517Y-199600318D01*
X479202517Y-199874423D01*
X479131575Y-200139188D01*
X478994523Y-200376571D01*
X478800702Y-200570393D01*
X478563320Y-200707446D01*
X478298555Y-200778390D01*
X478024450Y-200778391D01*
X477759685Y-200707448D01*
X477522303Y-200570396D01*
X477328481Y-200376575D01*
X477191428Y-200139194D01*
X477120483Y-199874429D01*
X477120483Y-199600324D01*
X477191425Y-199335558D01*
X477328477Y-199098176D01*
X477522298Y-198904354D01*
X477759680Y-198767301D01*
X478024445Y-198696357D01*
X478298550Y-198696356D01*
X478563315Y-198767299D01*
G37*
G36*
X473563315Y-198767312D02*
G01*
X473800697Y-198904364D01*
X473994519Y-199098185D01*
X474131572Y-199335567D01*
X474202517Y-199600331D01*
X474202517Y-199874436D01*
X474131575Y-200139202D01*
X473994523Y-200376584D01*
X473800702Y-200570406D01*
X473563320Y-200707459D01*
X473298555Y-200778403D01*
X473024450Y-200778404D01*
X472759685Y-200707461D01*
X472522303Y-200570409D01*
X472328481Y-200376588D01*
X472191428Y-200139207D01*
X472120483Y-199874442D01*
X472120483Y-199600337D01*
X472191425Y-199335572D01*
X472328477Y-199098189D01*
X472522298Y-198904367D01*
X472759680Y-198767314D01*
X473024445Y-198696370D01*
X473298550Y-198696369D01*
X473563315Y-198767312D01*
G37*
G36*
X434313515Y-198097325D02*
G01*
X434550897Y-198234377D01*
X434744719Y-198428198D01*
X434881772Y-198665580D01*
X434952717Y-198930345D01*
X434952717Y-199204450D01*
X434881775Y-199469215D01*
X434744723Y-199706597D01*
X434550902Y-199900419D01*
X434313520Y-200037472D01*
X434048755Y-200108417D01*
X433774650Y-200108417D01*
X433509885Y-200037475D01*
X433272503Y-199900423D01*
X433078681Y-199706602D01*
X432941628Y-199469220D01*
X432870683Y-199204455D01*
X432870683Y-198930350D01*
X432941625Y-198665585D01*
X433078677Y-198428203D01*
X433272498Y-198234381D01*
X433509880Y-198097328D01*
X433774645Y-198026383D01*
X434048750Y-198026383D01*
X434313515Y-198097325D01*
G37*
G36*
X444313515Y-198097299D02*
G01*
X444550897Y-198234351D01*
X444744719Y-198428172D01*
X444881772Y-198665553D01*
X444952717Y-198930318D01*
X444952717Y-199204423D01*
X444881775Y-199469188D01*
X444744723Y-199706571D01*
X444550902Y-199900393D01*
X444313520Y-200037446D01*
X444048755Y-200108390D01*
X443774650Y-200108391D01*
X443509885Y-200037448D01*
X443272503Y-199900396D01*
X443078681Y-199706575D01*
X442941628Y-199469194D01*
X442870683Y-199204429D01*
X442870683Y-198930324D01*
X442941625Y-198665558D01*
X443078677Y-198428176D01*
X443272498Y-198234354D01*
X443509880Y-198097301D01*
X443774645Y-198026357D01*
X444048750Y-198026356D01*
X444313515Y-198097299D01*
G37*
G36*
X439313515Y-198097312D02*
G01*
X439550897Y-198234364D01*
X439744719Y-198428185D01*
X439881772Y-198665567D01*
X439952717Y-198930331D01*
X439952717Y-199204436D01*
X439881775Y-199469202D01*
X439744723Y-199706584D01*
X439550902Y-199900406D01*
X439313520Y-200037459D01*
X439048755Y-200108403D01*
X438774650Y-200108404D01*
X438509885Y-200037461D01*
X438272503Y-199900409D01*
X438078681Y-199706588D01*
X437941628Y-199469207D01*
X437870683Y-199204442D01*
X437870683Y-198930337D01*
X437941625Y-198665572D01*
X438078677Y-198428189D01*
X438272498Y-198234367D01*
X438509880Y-198097314D01*
X438774645Y-198026370D01*
X439048750Y-198026369D01*
X439313515Y-198097312D01*
G37*
%TD*%
M02*
