<?xml version="1.0"?>
<!-- Created with xTool Creative Space (https://www.xtool.com/pages/software) -->
<svg xmlns="http://www.w3.org/2000/svg" xmlns:xlink="http://www.w3.org/1999/xlink" xmlns:xcs="https://www.xtool.com/pages/software" version="1.1" preserveAspectRatio="xMinYMin meet" width="135.1429901123047mm" height="175.0379867553711mm" viewBox="414.4774599692132 15.272053496178337 135.1429901123047 175.0379867553711" xcs:version="1.3.6"><style></style>
<polygon transform="matrix(0.886602,0,0,0.886602,423.390671,47.937351)" stroke="#00befe" fill="none" vector-effect="non-scaling-stroke" data-view-type="laser" points="66.16134513907522,0 123.45875077806446,99.24201770861282 8.863939500086019,99.24201770861285"></polygon><path transform="matrix(1,0,0,1,358.88041,22.664538)" stroke="#00befe" fill="none" vector-effect="non-scaling-stroke" data-view-type="laser" d="M64.3687 130.453L64.3687 162.453L181.969 162.453L181.969 130.453L64.3687 130.453Z" fill-rule="nonzero"></path><ellipse transform="matrix(0.0043141,0,0,0.0043141,427.069206,141.698097) scale(100)" stroke="#00befe" fill="none" vector-effect="non-scaling-stroke" data-view-type="laser" cx="5.6095183077406645" cy="5.6095183077406565" rx="5.6095183077406645" ry="5.6095183077406565"></ellipse><ellipse transform="matrix(0.0043141,0,0,0.0043141,532.849459,141.698097) scale(100)" stroke="#00befe" fill="none" vector-effect="non-scaling-stroke" data-view-type="laser" cx="5.6095183077406645" cy="5.6095183077406565" rx="5.6095183077406645" ry="5.6095183077406565"></ellipse><ellipse transform="matrix(0.0043141,0,0,0.0043141,479.628955,29.619238) scale(100)" stroke="#00befe" fill="none" vector-effect="non-scaling-stroke" data-view-type="laser" cx="5.6095183077406645" cy="5.6095183077406565" rx="5.6095183077406645" ry="5.6095183077406565"></ellipse><path transform="matrix(1,0,0,1,237.94946,-92.433948)" stroke="#00befe" fill="none" vector-effect="non-scaling-stroke" data-view-type="laser" d="M258.259,132.23100000000002L244.10000000000002,107.70600000000005L176.52800000000005,224.74400000000006L176.5280000000001,282.7440000000001L311.671,282.74400000000014L311.671,224.74400000000006L258.259,132.23100000000002Z" fill-rule="nonzero"></path></svg>