%TF.GenerationSoftware,Flux,Pcbnew,9.0.6-9.0.6~ubuntu22.04.1*%
%TF.CreationDate,2025-12-30T03:11:02+00:00*%
%TF.ProjectId,input,696e7075-742e-46b6-9963-61645f706362,rev?*%
%TF.SameCoordinates,Original*%
%TF.FileFunction,Soldermask,Top*%
%TF.FilePolarity,Negative*%
%FSLAX46Y46*%
G04 Gerber Fmt 4.6, Leading zero omitted, Abs format (unit mm)*
G04 Filename: pegjumpinggamepcb-179b*
G04 Build it with Flux! Visit our site at: https://www.flux.ai (PCBNEW 9.0.6-9.0.6~ubuntu22.04.1) date 2025-12-30 03:11:02*
%MOMM*%
%LPD*%
G01*
G04 APERTURE LIST*
%ADD10C,0.000000*%
G04 APERTURE END LIST*
D10*
%TO.C,*%
G36*
X484209715Y-191218308D02*
G01*
X484413185Y-191335782D01*
X484579318Y-191501915D01*
X484696792Y-191705385D01*
X484757600Y-191932326D01*
X484757600Y-192167274D01*
X484696792Y-192394215D01*
X484579318Y-192597685D01*
X484413185Y-192763818D01*
X484209715Y-192881292D01*
X483982774Y-192942100D01*
X483747826Y-192942100D01*
X483520885Y-192881292D01*
X483317415Y-192763818D01*
X483151282Y-192597685D01*
X483033808Y-192394215D01*
X482973000Y-192167274D01*
X482973000Y-191932326D01*
X483033808Y-191705385D01*
X483151282Y-191501915D01*
X483317415Y-191335782D01*
X483520885Y-191218308D01*
X483747826Y-191157500D01*
X483982774Y-191157500D01*
X484209715Y-191218308D01*
G37*
G36*
X496909715Y-190496208D02*
G01*
X497113185Y-190613682D01*
X497279318Y-190779815D01*
X497396792Y-190983285D01*
X497457600Y-191210226D01*
X497457600Y-191445174D01*
X497396792Y-191672115D01*
X497279318Y-191875585D01*
X497113185Y-192041718D01*
X496909715Y-192159192D01*
X496682774Y-192220000D01*
X496447826Y-192220000D01*
X496220885Y-192159192D01*
X496017415Y-192041718D01*
X495851282Y-191875585D01*
X495733808Y-191672115D01*
X495673000Y-191445174D01*
X495673000Y-191210226D01*
X495733808Y-190983285D01*
X495851282Y-190779815D01*
X496017415Y-190613682D01*
X496220885Y-190496208D01*
X496447826Y-190435400D01*
X496682774Y-190435400D01*
X496909715Y-190496208D01*
G37*
G36*
X494925300Y-192227700D02*
G01*
X493125300Y-192227700D01*
X493125300Y-190427700D01*
X494925300Y-190427700D01*
X494925300Y-192227700D01*
G37*
G36*
X465832215Y-138461908D02*
G01*
X466035685Y-138579382D01*
X466201818Y-138745515D01*
X466319292Y-138948985D01*
X466380100Y-139175926D01*
X466380100Y-139410874D01*
X466319292Y-139637815D01*
X466201818Y-139841285D01*
X466035685Y-140007418D01*
X465832215Y-140124892D01*
X465605274Y-140185700D01*
X465370326Y-140185700D01*
X465143385Y-140124892D01*
X464939915Y-140007418D01*
X464773782Y-139841285D01*
X464656308Y-139637815D01*
X464595500Y-139410874D01*
X464595500Y-139175926D01*
X464656308Y-138948985D01*
X464773782Y-138745515D01*
X464939915Y-138579382D01*
X465143385Y-138461908D01*
X465370326Y-138401100D01*
X465605274Y-138401100D01*
X465832215Y-138461908D01*
G37*
G36*
X483001265Y-160080516D02*
G01*
X481681441Y-160842514D01*
X480919443Y-159522690D01*
X482239267Y-158760692D01*
X483001265Y-160080516D01*
G37*
G36*
X455855484Y-174337569D02*
G01*
X456027755Y-174437031D01*
X456168414Y-174577690D01*
X456267874Y-174749961D01*
X456319359Y-174942105D01*
X456319359Y-175141027D01*
X456267874Y-175333171D01*
X456168412Y-175505442D01*
X456027753Y-175646101D01*
X455855481Y-175745562D01*
X455663338Y-175797046D01*
X455464416Y-175797046D01*
X455272272Y-175745561D01*
X455100001Y-175646100D01*
X454959342Y-175505441D01*
X454859881Y-175333169D01*
X454808397Y-175141025D01*
X454808397Y-174942103D01*
X454859882Y-174749959D01*
X454959343Y-174577688D01*
X455100002Y-174437029D01*
X455272274Y-174337569D01*
X455464418Y-174286084D01*
X455663340Y-174286084D01*
X455855484Y-174337569D01*
G37*
G36*
X461275758Y-188805804D02*
G01*
X461448030Y-188905266D01*
X461588688Y-189045925D01*
X461688149Y-189218196D01*
X461739634Y-189410340D01*
X461739633Y-189609262D01*
X461688148Y-189801406D01*
X461588687Y-189973677D01*
X461448028Y-190114336D01*
X461275756Y-190213797D01*
X461083612Y-190265281D01*
X460884690Y-190265281D01*
X460692547Y-190213796D01*
X460520275Y-190114335D01*
X460379617Y-189973676D01*
X460280156Y-189801404D01*
X460228671Y-189609260D01*
X460228672Y-189410338D01*
X460280157Y-189218194D01*
X460379618Y-189045923D01*
X460520277Y-188905264D01*
X460692549Y-188805804D01*
X460884693Y-188754319D01*
X461083615Y-188754319D01*
X461275758Y-188805804D01*
G37*
G36*
X465483027Y-186214326D02*
G01*
X465675171Y-186265811D01*
X465847442Y-186365272D01*
X465988101Y-186505931D01*
X466087562Y-186678203D01*
X466139046Y-186870347D01*
X466139046Y-187069268D01*
X466087561Y-187261412D01*
X465988100Y-187433684D01*
X465847441Y-187574342D01*
X465675169Y-187673803D01*
X465483025Y-187725288D01*
X465284103Y-187725287D01*
X465091959Y-187673802D01*
X464919688Y-187574341D01*
X464779029Y-187433682D01*
X464679569Y-187261410D01*
X464628084Y-187069266D01*
X464628084Y-186870344D01*
X464679569Y-186678201D01*
X464779031Y-186505929D01*
X464919690Y-186365271D01*
X465091961Y-186265810D01*
X465284105Y-186214325D01*
X465483027Y-186214326D01*
G37*
G36*
X462454603Y-170527579D02*
G01*
X462626874Y-170627040D01*
X462767533Y-170767699D01*
X462866993Y-170939971D01*
X462918478Y-171132115D01*
X462918478Y-171331037D01*
X462866993Y-171523180D01*
X462767531Y-171695452D01*
X462626872Y-171836111D01*
X462454601Y-171935571D01*
X462262457Y-171987056D01*
X462063535Y-171987056D01*
X461871391Y-171935570D01*
X461699120Y-171836109D01*
X461558461Y-171695450D01*
X461459000Y-171523178D01*
X461407516Y-171331035D01*
X461407516Y-171132113D01*
X461459001Y-170939969D01*
X461558462Y-170767698D01*
X461699121Y-170627039D01*
X461871393Y-170527578D01*
X462063537Y-170476094D01*
X462262459Y-170476094D01*
X462454603Y-170527579D01*
G37*
G36*
X459076052Y-190075801D02*
G01*
X459248323Y-190175262D01*
X459388982Y-190315922D01*
X459488443Y-190488193D01*
X459539927Y-190680337D01*
X459539927Y-190879259D01*
X459488442Y-191071403D01*
X459388981Y-191243674D01*
X459248322Y-191384333D01*
X459076050Y-191483794D01*
X458883906Y-191535278D01*
X458684984Y-191535278D01*
X458492840Y-191483793D01*
X458320569Y-191384332D01*
X458179910Y-191243672D01*
X458080450Y-191071401D01*
X458028965Y-190879257D01*
X458028965Y-190680335D01*
X458080450Y-190488191D01*
X458179912Y-190315920D01*
X458320571Y-190175261D01*
X458492842Y-190075800D01*
X458684986Y-190024316D01*
X458883908Y-190024316D01*
X459076052Y-190075801D01*
G37*
G36*
X466854015Y-167987585D02*
G01*
X467026287Y-168087046D01*
X467166945Y-168227706D01*
X467266406Y-168399977D01*
X467317891Y-168592121D01*
X467317890Y-168791043D01*
X467266405Y-168983187D01*
X467166944Y-169155458D01*
X467026285Y-169296117D01*
X466854013Y-169395578D01*
X466661869Y-169447062D01*
X466462947Y-169447062D01*
X466270804Y-169395577D01*
X466098532Y-169296116D01*
X465957874Y-169155456D01*
X465858413Y-168983185D01*
X465806928Y-168791041D01*
X465806929Y-168592119D01*
X465858414Y-168399975D01*
X465957875Y-168227704D01*
X466098534Y-168087045D01*
X466270806Y-167987584D01*
X466462950Y-167936100D01*
X466661871Y-167936100D01*
X466854015Y-167987585D01*
G37*
G36*
X460062752Y-171746091D02*
G01*
X460254896Y-171797576D01*
X460427167Y-171897037D01*
X460567826Y-172037696D01*
X460667287Y-172209968D01*
X460718772Y-172402112D01*
X460718771Y-172601034D01*
X460667286Y-172793177D01*
X460567825Y-172965449D01*
X460427166Y-173106107D01*
X460254894Y-173205568D01*
X460062750Y-173257053D01*
X459863828Y-173257052D01*
X459671685Y-173205567D01*
X459499413Y-173106106D01*
X459358755Y-172965447D01*
X459259294Y-172793175D01*
X459207809Y-172601031D01*
X459207810Y-172402110D01*
X459259295Y-172209966D01*
X459358756Y-172037694D01*
X459499415Y-171897036D01*
X459671687Y-171797575D01*
X459863831Y-171746090D01*
X460062752Y-171746091D01*
G37*
G36*
X469053722Y-166717588D02*
G01*
X469225993Y-166817050D01*
X469366652Y-166957709D01*
X469466112Y-167129980D01*
X469517597Y-167322124D01*
X469517597Y-167521046D01*
X469466112Y-167713190D01*
X469366650Y-167885461D01*
X469225991Y-168026120D01*
X469053720Y-168125581D01*
X468861576Y-168177065D01*
X468662654Y-168177065D01*
X468470510Y-168125580D01*
X468298239Y-168026119D01*
X468157580Y-167885459D01*
X468058119Y-167713188D01*
X468006635Y-167521044D01*
X468006635Y-167322122D01*
X468058120Y-167129978D01*
X468157581Y-166957707D01*
X468298240Y-166817048D01*
X468470512Y-166717588D01*
X468662656Y-166666103D01*
X468861578Y-166666103D01*
X469053722Y-166717588D01*
G37*
G36*
X485472528Y-174835839D02*
G01*
X485644799Y-174935300D01*
X485785458Y-175075959D01*
X485884919Y-175248231D01*
X485936403Y-175440375D01*
X485936403Y-175639297D01*
X485884918Y-175831441D01*
X485785457Y-176003712D01*
X485644798Y-176144371D01*
X485472526Y-176243831D01*
X485280382Y-176295316D01*
X485081460Y-176295316D01*
X484889316Y-176243831D01*
X484717045Y-176144369D01*
X484576386Y-176003710D01*
X484476926Y-175831439D01*
X484425441Y-175639295D01*
X484425441Y-175440373D01*
X484476926Y-175248229D01*
X484576388Y-175075958D01*
X484717047Y-174935299D01*
X484889319Y-174835838D01*
X485081462Y-174784354D01*
X485280384Y-174784354D01*
X485472528Y-174835839D01*
G37*
G36*
X464654309Y-169257582D02*
G01*
X464826580Y-169357043D01*
X464967239Y-169497702D01*
X465066700Y-169669974D01*
X465118184Y-169862118D01*
X465118184Y-170061040D01*
X465066699Y-170253184D01*
X464967238Y-170425455D01*
X464826578Y-170566114D01*
X464654307Y-170665574D01*
X464462163Y-170717059D01*
X464263241Y-170717059D01*
X464071097Y-170665574D01*
X463898826Y-170566112D01*
X463758167Y-170425453D01*
X463658706Y-170253182D01*
X463607222Y-170061038D01*
X463607222Y-169862116D01*
X463658707Y-169669972D01*
X463758169Y-169497701D01*
X463898828Y-169357042D01*
X464071099Y-169257581D01*
X464263243Y-169206097D01*
X464462165Y-169206097D01*
X464654309Y-169257582D01*
G37*
G36*
X480052253Y-160367604D02*
G01*
X480224525Y-160467065D01*
X480365183Y-160607724D01*
X480464644Y-160779996D01*
X480516129Y-160972140D01*
X480516128Y-161171062D01*
X480464643Y-161363206D01*
X480365182Y-161535477D01*
X480224523Y-161676136D01*
X480052251Y-161775596D01*
X479860107Y-161827081D01*
X479661185Y-161827081D01*
X479469042Y-161775596D01*
X479296770Y-161676134D01*
X479156112Y-161535475D01*
X479056651Y-161363204D01*
X479005166Y-161171060D01*
X479005167Y-160972138D01*
X479056652Y-160779994D01*
X479156113Y-160607723D01*
X479296772Y-160467064D01*
X479469044Y-160367603D01*
X479661188Y-160316119D01*
X479860110Y-160316119D01*
X480052253Y-160367604D01*
G37*
G36*
X473260990Y-164126110D02*
G01*
X473453134Y-164177595D01*
X473625406Y-164277056D01*
X473766064Y-164417715D01*
X473865525Y-164589987D01*
X473917010Y-164782131D01*
X473917009Y-164981052D01*
X473865524Y-165173196D01*
X473766063Y-165345467D01*
X473625404Y-165486126D01*
X473453132Y-165585587D01*
X473260988Y-165637072D01*
X473062066Y-165637071D01*
X472869923Y-165585586D01*
X472697651Y-165486125D01*
X472556993Y-165345466D01*
X472457532Y-165173194D01*
X472406047Y-164981050D01*
X472406048Y-164782128D01*
X472457533Y-164589985D01*
X472556994Y-164417713D01*
X472697653Y-164277055D01*
X472869925Y-164177594D01*
X473062069Y-164126109D01*
X473260990Y-164126110D01*
G37*
G36*
X489871941Y-172295845D02*
G01*
X490044212Y-172395306D01*
X490184871Y-172535966D01*
X490284332Y-172708237D01*
X490335816Y-172900381D01*
X490335816Y-173099303D01*
X490284331Y-173291447D01*
X490184870Y-173463718D01*
X490044210Y-173604377D01*
X489871939Y-173703838D01*
X489679795Y-173755322D01*
X489480873Y-173755322D01*
X489288729Y-173703837D01*
X489116458Y-173604376D01*
X488975799Y-173463716D01*
X488876338Y-173291445D01*
X488824854Y-173099301D01*
X488824854Y-172900379D01*
X488876339Y-172708235D01*
X488975800Y-172535964D01*
X489116460Y-172395305D01*
X489288731Y-172295844D01*
X489480875Y-172244360D01*
X489679797Y-172244360D01*
X489871941Y-172295845D01*
G37*
G36*
X453655777Y-175607566D02*
G01*
X453828048Y-175707028D01*
X453968707Y-175847687D01*
X454068168Y-176019958D01*
X454119653Y-176212102D01*
X454119652Y-176411024D01*
X454068167Y-176603168D01*
X453968706Y-176775439D01*
X453828047Y-176916098D01*
X453655775Y-177015559D01*
X453463631Y-177067043D01*
X453264709Y-177067043D01*
X453072566Y-177015558D01*
X452900294Y-176916097D01*
X452759635Y-176775437D01*
X452660175Y-176603166D01*
X452608690Y-176411022D01*
X452608691Y-176212100D01*
X452660176Y-176019956D01*
X452759637Y-175847685D01*
X452900296Y-175707026D01*
X453072568Y-175607565D01*
X453264712Y-175556081D01*
X453463633Y-175556081D01*
X453655777Y-175607566D01*
G37*
G36*
X487672234Y-173565842D02*
G01*
X487844506Y-173665303D01*
X487985165Y-173805963D01*
X488084625Y-173978234D01*
X488136110Y-174170378D01*
X488136109Y-174369300D01*
X488084624Y-174561444D01*
X487985163Y-174733715D01*
X487844504Y-174874374D01*
X487672232Y-174973835D01*
X487480088Y-175025319D01*
X487281167Y-175025319D01*
X487089023Y-174973834D01*
X486916752Y-174874372D01*
X486776093Y-174733713D01*
X486676632Y-174561442D01*
X486625147Y-174369298D01*
X486625148Y-174170376D01*
X486676633Y-173978232D01*
X486776094Y-173805961D01*
X486916753Y-173665302D01*
X487089025Y-173565841D01*
X487281169Y-173514357D01*
X487480091Y-173514357D01*
X487672234Y-173565842D01*
G37*
G36*
X457863046Y-173016088D02*
G01*
X458055190Y-173067573D01*
X458227461Y-173167034D01*
X458368120Y-173307693D01*
X458467581Y-173479965D01*
X458519065Y-173672109D01*
X458519065Y-173871030D01*
X458467580Y-174063174D01*
X458368119Y-174235445D01*
X458227459Y-174376104D01*
X458055188Y-174475565D01*
X457863044Y-174527050D01*
X457664122Y-174527049D01*
X457471978Y-174475564D01*
X457299707Y-174376103D01*
X457159048Y-174235444D01*
X457059587Y-174063172D01*
X457008103Y-173871028D01*
X457008103Y-173672106D01*
X457059588Y-173479963D01*
X457159049Y-173307691D01*
X457299709Y-173167032D01*
X457471980Y-173067572D01*
X457664124Y-173016087D01*
X457863046Y-173016088D01*
G37*
G36*
X483080678Y-176054351D02*
G01*
X483272822Y-176105836D01*
X483445093Y-176205297D01*
X483585752Y-176345956D01*
X483685213Y-176518228D01*
X483736697Y-176710372D01*
X483736697Y-176909294D01*
X483685212Y-177101437D01*
X483585751Y-177273709D01*
X483445091Y-177414368D01*
X483272820Y-177513828D01*
X483080676Y-177565313D01*
X482881754Y-177565312D01*
X482689610Y-177513827D01*
X482517339Y-177414366D01*
X482376680Y-177273707D01*
X482277219Y-177101435D01*
X482225735Y-176909291D01*
X482225735Y-176710370D01*
X482277220Y-176518226D01*
X482376681Y-176345955D01*
X482517341Y-176205296D01*
X482689612Y-176105835D01*
X482881756Y-176054350D01*
X483080678Y-176054351D01*
G37*
G36*
X474473996Y-181185823D02*
G01*
X474646268Y-181285284D01*
X474786926Y-181425944D01*
X474886387Y-181598215D01*
X474937872Y-181790359D01*
X474937871Y-181989281D01*
X474886386Y-182181425D01*
X474786925Y-182353696D01*
X474646266Y-182494355D01*
X474473994Y-182593816D01*
X474281850Y-182645300D01*
X474082929Y-182645300D01*
X473890785Y-182593815D01*
X473718513Y-182494354D01*
X473577855Y-182353694D01*
X473478394Y-182181423D01*
X473426909Y-181989279D01*
X473426910Y-181790357D01*
X473478395Y-181598213D01*
X473577856Y-181425942D01*
X473718515Y-181285283D01*
X473890787Y-181185822D01*
X474082931Y-181134338D01*
X474281853Y-181134338D01*
X474473996Y-181185823D01*
G37*
G36*
X451456071Y-176877563D02*
G01*
X451628342Y-176977024D01*
X451769001Y-177117684D01*
X451868462Y-177289955D01*
X451919946Y-177482099D01*
X451919946Y-177681021D01*
X451868461Y-177873165D01*
X451769000Y-178045436D01*
X451628340Y-178186095D01*
X451456069Y-178285556D01*
X451263925Y-178337040D01*
X451065003Y-178337040D01*
X450872859Y-178285555D01*
X450700588Y-178186094D01*
X450559929Y-178045434D01*
X450460468Y-177873163D01*
X450408984Y-177681019D01*
X450408984Y-177482097D01*
X450460469Y-177289953D01*
X450559930Y-177117682D01*
X450700590Y-176977023D01*
X450872861Y-176877562D01*
X451065005Y-176826078D01*
X451263927Y-176826078D01*
X451456071Y-176877563D01*
G37*
G36*
X471253428Y-165447591D02*
G01*
X471425699Y-165547053D01*
X471566358Y-165687712D01*
X471665819Y-165859983D01*
X471717303Y-166052127D01*
X471717303Y-166251049D01*
X471665818Y-166443193D01*
X471566357Y-166615464D01*
X471425697Y-166756123D01*
X471253426Y-166855584D01*
X471061282Y-166907068D01*
X470862360Y-166907068D01*
X470670216Y-166855583D01*
X470497945Y-166756122D01*
X470357286Y-166615463D01*
X470257825Y-166443191D01*
X470206341Y-166251047D01*
X470206341Y-166052125D01*
X470257826Y-165859981D01*
X470357288Y-165687710D01*
X470497947Y-165547051D01*
X470670218Y-165447591D01*
X470862362Y-165396106D01*
X471061284Y-165396106D01*
X471253428Y-165447591D01*
G37*
G36*
X477852547Y-161637601D02*
G01*
X478024818Y-161737062D01*
X478165477Y-161877721D01*
X478264938Y-162049993D01*
X478316422Y-162242137D01*
X478316422Y-162441059D01*
X478264937Y-162633202D01*
X478165476Y-162805474D01*
X478024816Y-162946133D01*
X477852545Y-163045593D01*
X477660401Y-163097078D01*
X477461479Y-163097078D01*
X477269335Y-163045592D01*
X477097064Y-162946131D01*
X476956405Y-162805472D01*
X476856945Y-162633200D01*
X476805460Y-162441057D01*
X476805460Y-162242135D01*
X476856945Y-162049991D01*
X476956407Y-161877720D01*
X477097066Y-161737061D01*
X477269337Y-161637600D01*
X477461481Y-161586116D01*
X477660403Y-161586116D01*
X477852547Y-161637601D01*
G37*
G36*
X475460697Y-162856113D02*
G01*
X475652841Y-162907598D01*
X475825112Y-163007059D01*
X475965771Y-163147718D01*
X476065231Y-163319990D01*
X476116716Y-163512134D01*
X476116716Y-163711056D01*
X476065231Y-163903199D01*
X475965769Y-164075471D01*
X475825110Y-164216129D01*
X475652839Y-164315590D01*
X475460695Y-164367075D01*
X475261773Y-164367074D01*
X475069629Y-164315589D01*
X474897358Y-164216128D01*
X474756699Y-164075469D01*
X474657238Y-163903197D01*
X474605754Y-163711053D01*
X474605754Y-163512132D01*
X474657239Y-163319988D01*
X474756700Y-163147716D01*
X474897359Y-163007058D01*
X475069631Y-162907597D01*
X475261775Y-162856112D01*
X475460697Y-162856113D01*
G37*
G36*
X476673703Y-179915826D02*
G01*
X476845974Y-180015288D01*
X476986633Y-180155947D01*
X477086094Y-180328218D01*
X477137578Y-180520362D01*
X477137578Y-180719284D01*
X477086093Y-180911428D01*
X476986631Y-181083699D01*
X476845972Y-181224358D01*
X476673701Y-181323819D01*
X476481557Y-181375303D01*
X476282635Y-181375303D01*
X476090491Y-181323818D01*
X475918220Y-181224357D01*
X475777561Y-181083698D01*
X475678100Y-180911426D01*
X475626616Y-180719282D01*
X475626616Y-180520360D01*
X475678101Y-180328216D01*
X475777562Y-180155945D01*
X475918222Y-180015286D01*
X476090493Y-179915826D01*
X476282637Y-179864341D01*
X476481559Y-179864341D01*
X476673703Y-179915826D01*
G37*
G36*
X472274290Y-182455820D02*
G01*
X472446561Y-182555281D01*
X472587220Y-182695941D01*
X472686681Y-182868212D01*
X472738165Y-183060356D01*
X472738165Y-183259278D01*
X472686680Y-183451422D01*
X472587219Y-183623693D01*
X472446560Y-183764352D01*
X472274288Y-183863812D01*
X472082144Y-183915297D01*
X471883222Y-183915297D01*
X471691078Y-183863812D01*
X471518807Y-183764350D01*
X471378148Y-183623691D01*
X471278688Y-183451420D01*
X471227203Y-183259276D01*
X471227203Y-183060354D01*
X471278688Y-182868210D01*
X471378150Y-182695939D01*
X471518809Y-182555280D01*
X471691080Y-182455819D01*
X471883224Y-182404335D01*
X472082146Y-182404335D01*
X472274290Y-182455820D01*
G37*
G36*
X478873409Y-178645830D02*
G01*
X479045680Y-178745291D01*
X479186339Y-178885950D01*
X479285800Y-179058222D01*
X479337284Y-179250365D01*
X479337284Y-179449287D01*
X479285799Y-179641431D01*
X479186338Y-179813702D01*
X479045679Y-179954361D01*
X478873407Y-180053822D01*
X478681263Y-180105306D01*
X478482341Y-180105306D01*
X478290197Y-180053821D01*
X478117926Y-179954360D01*
X477977267Y-179813701D01*
X477877807Y-179641429D01*
X477826322Y-179449285D01*
X477826322Y-179250363D01*
X477877807Y-179058220D01*
X477977269Y-178885948D01*
X478117928Y-178745289D01*
X478290199Y-178645829D01*
X478482343Y-178594344D01*
X478681265Y-178594344D01*
X478873409Y-178645830D01*
G37*
G36*
X467682734Y-184944329D02*
G01*
X467874877Y-184995814D01*
X468047149Y-185095275D01*
X468187807Y-185235934D01*
X468287268Y-185408206D01*
X468338753Y-185600350D01*
X468338752Y-185799272D01*
X468287267Y-185991415D01*
X468187806Y-186163687D01*
X468047147Y-186304345D01*
X467874875Y-186403806D01*
X467682731Y-186455291D01*
X467483810Y-186455290D01*
X467291666Y-186403805D01*
X467119394Y-186304344D01*
X466978736Y-186163685D01*
X466879275Y-185991413D01*
X466827790Y-185799269D01*
X466827791Y-185600348D01*
X466879276Y-185408204D01*
X466978737Y-185235933D01*
X467119396Y-185095274D01*
X467291668Y-184995813D01*
X467483812Y-184944328D01*
X467682734Y-184944329D01*
G37*
G36*
X470074584Y-183725817D02*
G01*
X470246855Y-183825278D01*
X470387514Y-183965937D01*
X470486975Y-184138209D01*
X470538459Y-184330353D01*
X470538459Y-184529275D01*
X470486974Y-184721419D01*
X470387512Y-184893690D01*
X470246853Y-185034349D01*
X470074582Y-185133809D01*
X469882438Y-185185294D01*
X469683516Y-185185294D01*
X469491372Y-185133809D01*
X469319101Y-185034347D01*
X469178442Y-184893688D01*
X469078981Y-184721417D01*
X469027497Y-184529273D01*
X469027497Y-184330351D01*
X469078982Y-184138207D01*
X469178443Y-183965936D01*
X469319103Y-183825277D01*
X469491374Y-183725816D01*
X469683518Y-183674332D01*
X469882440Y-183674332D01*
X470074584Y-183725817D01*
G37*
G36*
X463475465Y-187535808D02*
G01*
X463647736Y-187635269D01*
X463788395Y-187775928D01*
X463887855Y-187948200D01*
X463939340Y-188140343D01*
X463939340Y-188339265D01*
X463887855Y-188531409D01*
X463788393Y-188703680D01*
X463647734Y-188844339D01*
X463475463Y-188943800D01*
X463283319Y-188995284D01*
X463084397Y-188995284D01*
X462892253Y-188943799D01*
X462719982Y-188844338D01*
X462579323Y-188703679D01*
X462479862Y-188531407D01*
X462428378Y-188339263D01*
X462428378Y-188140341D01*
X462479863Y-187948198D01*
X462579324Y-187775926D01*
X462719984Y-187635267D01*
X462892255Y-187535807D01*
X463084399Y-187484322D01*
X463283321Y-187484322D01*
X463475465Y-187535808D01*
G37*
G36*
X480880972Y-177324348D02*
G01*
X481073115Y-177375833D01*
X481245387Y-177475294D01*
X481386045Y-177615953D01*
X481485506Y-177788225D01*
X481536991Y-177980369D01*
X481536990Y-178179290D01*
X481485505Y-178371434D01*
X481386044Y-178543706D01*
X481245385Y-178684364D01*
X481073113Y-178783825D01*
X480880969Y-178835310D01*
X480682048Y-178835309D01*
X480489904Y-178783824D01*
X480317633Y-178684363D01*
X480176974Y-178543704D01*
X480077513Y-178371432D01*
X480026028Y-178179288D01*
X480026029Y-177980366D01*
X480077514Y-177788223D01*
X480176975Y-177615951D01*
X480317634Y-177475293D01*
X480489906Y-177375832D01*
X480682050Y-177324347D01*
X480880972Y-177324348D01*
G37*
G36*
X475705615Y-151561208D02*
G01*
X475909085Y-151678682D01*
X476075218Y-151844815D01*
X476192692Y-152048285D01*
X476253500Y-152275226D01*
X476253500Y-152510174D01*
X476192692Y-152737115D01*
X476075218Y-152940585D01*
X475909085Y-153106718D01*
X475705615Y-153224192D01*
X475478674Y-153285000D01*
X475243726Y-153285000D01*
X475016785Y-153224192D01*
X474813315Y-153106718D01*
X474647182Y-152940585D01*
X474529708Y-152737115D01*
X474468900Y-152510174D01*
X474468900Y-152275226D01*
X474529708Y-152048285D01*
X474647182Y-151844815D01*
X474813315Y-151678682D01*
X475016785Y-151561208D01*
X475243726Y-151500400D01*
X475478674Y-151500400D01*
X475705615Y-151561208D01*
G37*
G36*
X453708615Y-195433608D02*
G01*
X453912085Y-195551082D01*
X454078218Y-195717215D01*
X454195692Y-195920685D01*
X454256500Y-196147626D01*
X454256500Y-196382574D01*
X454195692Y-196609515D01*
X454078218Y-196812985D01*
X453912085Y-196979118D01*
X453708615Y-197096592D01*
X453481674Y-197157400D01*
X453246726Y-197157400D01*
X453019785Y-197096592D01*
X452816315Y-196979118D01*
X452650182Y-196812985D01*
X452532708Y-196609515D01*
X452471900Y-196382574D01*
X452471900Y-196147626D01*
X452532708Y-195920685D01*
X452650182Y-195717215D01*
X452816315Y-195551082D01*
X453019785Y-195433608D01*
X453246726Y-195372800D01*
X453481674Y-195372800D01*
X453708615Y-195433608D01*
G37*
G36*
X470127415Y-134051008D02*
G01*
X470330885Y-134168482D01*
X470497018Y-134334615D01*
X470614492Y-134538085D01*
X470675300Y-134765026D01*
X470675300Y-134999974D01*
X470614492Y-135226915D01*
X470497018Y-135430385D01*
X470330885Y-135596518D01*
X470127415Y-135713992D01*
X469900474Y-135774800D01*
X469665526Y-135774800D01*
X469438585Y-135713992D01*
X469235115Y-135596518D01*
X469068982Y-135430385D01*
X468951508Y-135226915D01*
X468890700Y-134999974D01*
X468890700Y-134765026D01*
X468951508Y-134538085D01*
X469068982Y-134334615D01*
X469235115Y-134168482D01*
X469438585Y-134051008D01*
X469665526Y-133990200D01*
X469900474Y-133990200D01*
X470127415Y-134051008D01*
G37*
G36*
X460307715Y-195433608D02*
G01*
X460511185Y-195551082D01*
X460677318Y-195717215D01*
X460794792Y-195920685D01*
X460855600Y-196147626D01*
X460855600Y-196382574D01*
X460794792Y-196609515D01*
X460677318Y-196812985D01*
X460511185Y-196979118D01*
X460307715Y-197096592D01*
X460080774Y-197157400D01*
X459845826Y-197157400D01*
X459618885Y-197096592D01*
X459415415Y-196979118D01*
X459249282Y-196812985D01*
X459131808Y-196609515D01*
X459071000Y-196382574D01*
X459071000Y-196147626D01*
X459131808Y-195920685D01*
X459249282Y-195717215D01*
X459415415Y-195551082D01*
X459618885Y-195433608D01*
X459845826Y-195372800D01*
X460080774Y-195372800D01*
X460307715Y-195433608D01*
G37*
G36*
X462402115Y-141700808D02*
G01*
X462605585Y-141818282D01*
X462771718Y-141984415D01*
X462889192Y-142187885D01*
X462950000Y-142414826D01*
X462950000Y-142649774D01*
X462889192Y-142876715D01*
X462771718Y-143080185D01*
X462605585Y-143246318D01*
X462402115Y-143363792D01*
X462175174Y-143424600D01*
X461940226Y-143424600D01*
X461713285Y-143363792D01*
X461509815Y-143246318D01*
X461343682Y-143080185D01*
X461226208Y-142876715D01*
X461165400Y-142649774D01*
X461165400Y-142414826D01*
X461226208Y-142187885D01*
X461343682Y-141984415D01*
X461509815Y-141818282D01*
X461713285Y-141700808D01*
X461940226Y-141640000D01*
X462175174Y-141640000D01*
X462402115Y-141700808D01*
G37*
G36*
X448522015Y-195433608D02*
G01*
X448725485Y-195551082D01*
X448891618Y-195717215D01*
X449009092Y-195920685D01*
X449069900Y-196147626D01*
X449069900Y-196382574D01*
X449009092Y-196609515D01*
X448891618Y-196812985D01*
X448725485Y-196979118D01*
X448522015Y-197096592D01*
X448295074Y-197157400D01*
X448060126Y-197157400D01*
X447833185Y-197096592D01*
X447629715Y-196979118D01*
X447463582Y-196812985D01*
X447346108Y-196609515D01*
X447285300Y-196382574D01*
X447285300Y-196147626D01*
X447346108Y-195920685D01*
X447463582Y-195717215D01*
X447629715Y-195551082D01*
X447833185Y-195433608D01*
X448060126Y-195372800D01*
X448295074Y-195372800D01*
X448522015Y-195433608D01*
G37*
G36*
X495993802Y-183731302D02*
G01*
X495993798Y-185128302D01*
X494596798Y-185128298D01*
X494596802Y-183731298D01*
X495993802Y-183731302D01*
G37*
G36*
X483956474Y-183737246D02*
G01*
X484132606Y-183784441D01*
X484290521Y-183875613D01*
X484419458Y-184004551D01*
X484510631Y-184162467D01*
X484557824Y-184338599D01*
X484557824Y-184520944D01*
X484510629Y-184697076D01*
X484419456Y-184854991D01*
X484290518Y-184983928D01*
X484132603Y-185075100D01*
X483956471Y-185122294D01*
X483774126Y-185122294D01*
X483597994Y-185075099D01*
X483440079Y-184983926D01*
X483311142Y-184854988D01*
X483219969Y-184697072D01*
X483172776Y-184520940D01*
X483172776Y-184338595D01*
X483219971Y-184162464D01*
X483311144Y-184004548D01*
X483440082Y-183875611D01*
X483597997Y-183784439D01*
X483774129Y-183737245D01*
X483956474Y-183737246D01*
G37*
G36*
X468563315Y-198767325D02*
G01*
X468800697Y-198904377D01*
X468994519Y-199098198D01*
X469131572Y-199335580D01*
X469202517Y-199600345D01*
X469202517Y-199874450D01*
X469131575Y-200139215D01*
X468994523Y-200376597D01*
X468800702Y-200570419D01*
X468563320Y-200707472D01*
X468298555Y-200778417D01*
X468024450Y-200778417D01*
X467759685Y-200707475D01*
X467522303Y-200570423D01*
X467328481Y-200376602D01*
X467191428Y-200139220D01*
X467120483Y-199874455D01*
X467120483Y-199600350D01*
X467191425Y-199335585D01*
X467328477Y-199098203D01*
X467522298Y-198904381D01*
X467759680Y-198767328D01*
X468024445Y-198696383D01*
X468298550Y-198696383D01*
X468563315Y-198767325D01*
G37*
G36*
X478563315Y-198767299D02*
G01*
X478800697Y-198904351D01*
X478994519Y-199098172D01*
X479131572Y-199335553D01*
X479202517Y-199600318D01*
X479202517Y-199874423D01*
X479131575Y-200139188D01*
X478994523Y-200376571D01*
X478800702Y-200570393D01*
X478563320Y-200707446D01*
X478298555Y-200778390D01*
X478024450Y-200778391D01*
X477759685Y-200707448D01*
X477522303Y-200570396D01*
X477328481Y-200376575D01*
X477191428Y-200139194D01*
X477120483Y-199874429D01*
X477120483Y-199600324D01*
X477191425Y-199335558D01*
X477328477Y-199098176D01*
X477522298Y-198904354D01*
X477759680Y-198767301D01*
X478024445Y-198696357D01*
X478298550Y-198696356D01*
X478563315Y-198767299D01*
G37*
G36*
X473563315Y-198767312D02*
G01*
X473800697Y-198904364D01*
X473994519Y-199098185D01*
X474131572Y-199335567D01*
X474202517Y-199600331D01*
X474202517Y-199874436D01*
X474131575Y-200139202D01*
X473994523Y-200376584D01*
X473800702Y-200570406D01*
X473563320Y-200707459D01*
X473298555Y-200778403D01*
X473024450Y-200778404D01*
X472759685Y-200707461D01*
X472522303Y-200570409D01*
X472328481Y-200376588D01*
X472191428Y-200139207D01*
X472120483Y-199874442D01*
X472120483Y-199600337D01*
X472191425Y-199335572D01*
X472328477Y-199098189D01*
X472522298Y-198904367D01*
X472759680Y-198767314D01*
X473024445Y-198696370D01*
X473298550Y-198696369D01*
X473563315Y-198767312D01*
G37*
G36*
X434313515Y-198097325D02*
G01*
X434550897Y-198234377D01*
X434744719Y-198428198D01*
X434881772Y-198665580D01*
X434952717Y-198930345D01*
X434952717Y-199204450D01*
X434881775Y-199469215D01*
X434744723Y-199706597D01*
X434550902Y-199900419D01*
X434313520Y-200037472D01*
X434048755Y-200108417D01*
X433774650Y-200108417D01*
X433509885Y-200037475D01*
X433272503Y-199900423D01*
X433078681Y-199706602D01*
X432941628Y-199469220D01*
X432870683Y-199204455D01*
X432870683Y-198930350D01*
X432941625Y-198665585D01*
X433078677Y-198428203D01*
X433272498Y-198234381D01*
X433509880Y-198097328D01*
X433774645Y-198026383D01*
X434048750Y-198026383D01*
X434313515Y-198097325D01*
G37*
G36*
X444313515Y-198097299D02*
G01*
X444550897Y-198234351D01*
X444744719Y-198428172D01*
X444881772Y-198665553D01*
X444952717Y-198930318D01*
X444952717Y-199204423D01*
X444881775Y-199469188D01*
X444744723Y-199706571D01*
X444550902Y-199900393D01*
X444313520Y-200037446D01*
X444048755Y-200108390D01*
X443774650Y-200108391D01*
X443509885Y-200037448D01*
X443272503Y-199900396D01*
X443078681Y-199706575D01*
X442941628Y-199469194D01*
X442870683Y-199204429D01*
X442870683Y-198930324D01*
X442941625Y-198665558D01*
X443078677Y-198428176D01*
X443272498Y-198234354D01*
X443509880Y-198097301D01*
X443774645Y-198026357D01*
X444048750Y-198026356D01*
X444313515Y-198097299D01*
G37*
G36*
X439313515Y-198097312D02*
G01*
X439550897Y-198234364D01*
X439744719Y-198428185D01*
X439881772Y-198665567D01*
X439952717Y-198930331D01*
X439952717Y-199204436D01*
X439881775Y-199469202D01*
X439744723Y-199706584D01*
X439550902Y-199900406D01*
X439313520Y-200037459D01*
X439048755Y-200108403D01*
X438774650Y-200108404D01*
X438509885Y-200037461D01*
X438272503Y-199900409D01*
X438078681Y-199706588D01*
X437941628Y-199469207D01*
X437870683Y-199204442D01*
X437870683Y-198930337D01*
X437941625Y-198665572D01*
X438078677Y-198428189D01*
X438272498Y-198234367D01*
X438509880Y-198097314D01*
X438774645Y-198026370D01*
X439048750Y-198026369D01*
X439313515Y-198097312D01*
G37*
%TD*%
M02*
