%TF.GenerationSoftware,Flux,Pcbnew,9.0.6-9.0.6~ubuntu22.04.1*%
%TF.CreationDate,2025-12-30T03:11:01+00:00*%
%TF.ProjectId,input,696e7075-742e-46b6-9963-61645f706362,rev?*%
%TF.SameCoordinates,Original*%
%TF.FileFunction,Legend,Bot*%
%TF.FilePolarity,Positive*%
%FSLAX46Y46*%
G04 Gerber Fmt 4.6, Leading zero omitted, Abs format (unit mm)*
G04 Filename: pegjumpinggamepcb-179b*
G04 Build it with Flux! Visit our site at: https://www.flux.ai (PCBNEW 9.0.6-9.0.6~ubuntu22.04.1) date 2025-12-30 03:11:01*
%MOMM*%
%LPD*%
G01*
G04 APERTURE LIST*
%ADD10C,0.190000*%
%ADD11C,0.095000*%
%ADD12C,0.120650*%
%ADD13C,0.120000*%
%ADD14C,0.100000*%
G04 APERTURE END LIST*
D10*
X467257347Y-193856799D02*
X467104966Y-193932989D01*
X467104966Y-193932989D02*
X466876395Y-193932989D01*
X466876395Y-193932989D02*
X466647823Y-193856799D01*
X466647823Y-193856799D02*
X466495442Y-193704418D01*
X466495442Y-193704418D02*
X466419252Y-193552037D01*
X466419252Y-193552037D02*
X466343061Y-193247275D01*
X466343061Y-193247275D02*
X466343061Y-193018703D01*
X466343061Y-193018703D02*
X466419252Y-192713941D01*
X466419252Y-192713941D02*
X466495442Y-192561560D01*
X466495442Y-192561560D02*
X466647823Y-192409180D01*
X466647823Y-192409180D02*
X466876395Y-192332989D01*
X466876395Y-192332989D02*
X467028776Y-192332989D01*
X467028776Y-192332989D02*
X467257347Y-192409180D01*
X467257347Y-192409180D02*
X467333538Y-192485370D01*
X467333538Y-192485370D02*
X467333538Y-193018703D01*
X467333538Y-193018703D02*
X467028776Y-193018703D01*
X468019252Y-192332989D02*
X468019252Y-193932989D01*
X468019252Y-193932989D02*
X468933538Y-192332989D01*
X468933538Y-192332989D02*
X468933538Y-193932989D01*
X469695442Y-192332989D02*
X469695442Y-193932989D01*
X469695442Y-193932989D02*
X470076394Y-193932989D01*
X470076394Y-193932989D02*
X470304966Y-193856799D01*
X470304966Y-193856799D02*
X470457347Y-193704418D01*
X470457347Y-193704418D02*
X470533537Y-193552037D01*
X470533537Y-193552037D02*
X470609728Y-193247275D01*
X470609728Y-193247275D02*
X470609728Y-193018703D01*
X470609728Y-193018703D02*
X470533537Y-192713941D01*
X470533537Y-192713941D02*
X470457347Y-192561560D01*
X470457347Y-192561560D02*
X470304966Y-192409180D01*
X470304966Y-192409180D02*
X470076394Y-192332989D01*
X470076394Y-192332989D02*
X469695442Y-192332989D01*
X471676394Y-192790132D02*
X472438299Y-192790132D01*
X471524013Y-192332989D02*
X472057347Y-193932989D01*
X472057347Y-193932989D02*
X472590680Y-192332989D01*
X473047823Y-193780608D02*
X473124014Y-193856799D01*
X473124014Y-193856799D02*
X473276395Y-193932989D01*
X473276395Y-193932989D02*
X473657347Y-193932989D01*
X473657347Y-193932989D02*
X473809728Y-193856799D01*
X473809728Y-193856799D02*
X473885919Y-193780608D01*
X473885919Y-193780608D02*
X473962109Y-193628227D01*
X473962109Y-193628227D02*
X473962109Y-193475846D01*
X473962109Y-193475846D02*
X473885919Y-193247275D01*
X473885919Y-193247275D02*
X472971633Y-192332989D01*
X472971633Y-192332989D02*
X473962109Y-192332989D01*
X475028776Y-192790132D02*
X475790681Y-192790132D01*
X474876395Y-192332989D02*
X475409729Y-193932989D01*
X475409729Y-193932989D02*
X475943062Y-192332989D01*
X477314491Y-192332989D02*
X476400205Y-192332989D01*
X476857348Y-192332989D02*
X476857348Y-193932989D01*
X476857348Y-193932989D02*
X476704967Y-193704418D01*
X476704967Y-193704418D02*
X476552586Y-193552037D01*
X476552586Y-193552037D02*
X476400205Y-193475846D01*
X432748547Y-192587399D02*
X432596166Y-192663589D01*
X432596166Y-192663589D02*
X432367595Y-192663589D01*
X432367595Y-192663589D02*
X432139023Y-192587399D01*
X432139023Y-192587399D02*
X431986642Y-192435018D01*
X431986642Y-192435018D02*
X431910452Y-192282637D01*
X431910452Y-192282637D02*
X431834261Y-191977875D01*
X431834261Y-191977875D02*
X431834261Y-191749303D01*
X431834261Y-191749303D02*
X431910452Y-191444541D01*
X431910452Y-191444541D02*
X431986642Y-191292160D01*
X431986642Y-191292160D02*
X432139023Y-191139780D01*
X432139023Y-191139780D02*
X432367595Y-191063589D01*
X432367595Y-191063589D02*
X432519976Y-191063589D01*
X432519976Y-191063589D02*
X432748547Y-191139780D01*
X432748547Y-191139780D02*
X432824738Y-191215970D01*
X432824738Y-191215970D02*
X432824738Y-191749303D01*
X432824738Y-191749303D02*
X432519976Y-191749303D01*
X433510452Y-191063589D02*
X433510452Y-192663589D01*
X433510452Y-192663589D02*
X434424738Y-191063589D01*
X434424738Y-191063589D02*
X434424738Y-192663589D01*
X435186642Y-191063589D02*
X435186642Y-192663589D01*
X435186642Y-192663589D02*
X435567594Y-192663589D01*
X435567594Y-192663589D02*
X435796166Y-192587399D01*
X435796166Y-192587399D02*
X435948547Y-192435018D01*
X435948547Y-192435018D02*
X436024737Y-192282637D01*
X436024737Y-192282637D02*
X436100928Y-191977875D01*
X436100928Y-191977875D02*
X436100928Y-191749303D01*
X436100928Y-191749303D02*
X436024737Y-191444541D01*
X436024737Y-191444541D02*
X435948547Y-191292160D01*
X435948547Y-191292160D02*
X435796166Y-191139780D01*
X435796166Y-191139780D02*
X435567594Y-191063589D01*
X435567594Y-191063589D02*
X435186642Y-191063589D01*
X438005690Y-192663589D02*
X437243785Y-192663589D01*
X437243785Y-192663589D02*
X437167594Y-191901684D01*
X437167594Y-191901684D02*
X437243785Y-191977875D01*
X437243785Y-191977875D02*
X437396166Y-192054065D01*
X437396166Y-192054065D02*
X437777118Y-192054065D01*
X437777118Y-192054065D02*
X437929499Y-191977875D01*
X437929499Y-191977875D02*
X438005690Y-191901684D01*
X438005690Y-191901684D02*
X438081880Y-191749303D01*
X438081880Y-191749303D02*
X438081880Y-191368351D01*
X438081880Y-191368351D02*
X438005690Y-191215970D01*
X438005690Y-191215970D02*
X437929499Y-191139780D01*
X437929499Y-191139780D02*
X437777118Y-191063589D01*
X437777118Y-191063589D02*
X437396166Y-191063589D01*
X437396166Y-191063589D02*
X437243785Y-191139780D01*
X437243785Y-191139780D02*
X437167594Y-191215970D01*
X438539023Y-192663589D02*
X439072357Y-191063589D01*
X439072357Y-191063589D02*
X439605690Y-192663589D01*
X440596167Y-191063589D02*
X440596167Y-192663589D01*
X440596167Y-192663589D02*
X440977119Y-192663589D01*
X440977119Y-192663589D02*
X441205691Y-192587399D01*
X441205691Y-192587399D02*
X441358072Y-192435018D01*
X441358072Y-192435018D02*
X441434262Y-192282637D01*
X441434262Y-192282637D02*
X441510453Y-191977875D01*
X441510453Y-191977875D02*
X441510453Y-191749303D01*
X441510453Y-191749303D02*
X441434262Y-191444541D01*
X441434262Y-191444541D02*
X441358072Y-191292160D01*
X441358072Y-191292160D02*
X441205691Y-191139780D01*
X441205691Y-191139780D02*
X440977119Y-191063589D01*
X440977119Y-191063589D02*
X440596167Y-191063589D01*
X442424738Y-191977875D02*
X442272357Y-192054065D01*
X442272357Y-192054065D02*
X442196167Y-192130256D01*
X442196167Y-192130256D02*
X442119976Y-192282637D01*
X442119976Y-192282637D02*
X442119976Y-192358827D01*
X442119976Y-192358827D02*
X442196167Y-192511208D01*
X442196167Y-192511208D02*
X442272357Y-192587399D01*
X442272357Y-192587399D02*
X442424738Y-192663589D01*
X442424738Y-192663589D02*
X442729500Y-192663589D01*
X442729500Y-192663589D02*
X442881881Y-192587399D01*
X442881881Y-192587399D02*
X442958072Y-192511208D01*
X442958072Y-192511208D02*
X443034262Y-192358827D01*
X443034262Y-192358827D02*
X443034262Y-192282637D01*
X443034262Y-192282637D02*
X442958072Y-192130256D01*
X442958072Y-192130256D02*
X442881881Y-192054065D01*
X442881881Y-192054065D02*
X442729500Y-191977875D01*
X442729500Y-191977875D02*
X442424738Y-191977875D01*
X442424738Y-191977875D02*
X442272357Y-191901684D01*
X442272357Y-191901684D02*
X442196167Y-191825494D01*
X442196167Y-191825494D02*
X442119976Y-191673113D01*
X442119976Y-191673113D02*
X442119976Y-191368351D01*
X442119976Y-191368351D02*
X442196167Y-191215970D01*
X442196167Y-191215970D02*
X442272357Y-191139780D01*
X442272357Y-191139780D02*
X442424738Y-191063589D01*
X442424738Y-191063589D02*
X442729500Y-191063589D01*
X442729500Y-191063589D02*
X442881881Y-191139780D01*
X442881881Y-191139780D02*
X442958072Y-191215970D01*
X442958072Y-191215970D02*
X443034262Y-191368351D01*
X443034262Y-191368351D02*
X443034262Y-191673113D01*
X443034262Y-191673113D02*
X442958072Y-191825494D01*
X442958072Y-191825494D02*
X442881881Y-191901684D01*
X442881881Y-191901684D02*
X442729500Y-191977875D01*
D11*
X468995732Y-142214445D02*
X469071922Y-142176350D01*
X469071922Y-142176350D02*
X469148113Y-142100160D01*
X469148113Y-142100160D02*
X469262399Y-141985874D01*
X469262399Y-141985874D02*
X469338589Y-141947779D01*
X469338589Y-141947779D02*
X469414780Y-141947779D01*
X469376684Y-142138255D02*
X469452875Y-142100160D01*
X469452875Y-142100160D02*
X469529065Y-142023969D01*
X469529065Y-142023969D02*
X469567161Y-141871588D01*
X469567161Y-141871588D02*
X469567161Y-141604921D01*
X469567161Y-141604921D02*
X469529065Y-141452540D01*
X469529065Y-141452540D02*
X469452875Y-141376350D01*
X469452875Y-141376350D02*
X469376684Y-141338255D01*
X469376684Y-141338255D02*
X469224303Y-141338255D01*
X469224303Y-141338255D02*
X469148113Y-141376350D01*
X469148113Y-141376350D02*
X469071922Y-141452540D01*
X469071922Y-141452540D02*
X469033827Y-141604921D01*
X469033827Y-141604921D02*
X469033827Y-141871588D01*
X469033827Y-141871588D02*
X469071922Y-142023969D01*
X469071922Y-142023969D02*
X469148113Y-142100160D01*
X469148113Y-142100160D02*
X469224303Y-142138255D01*
X469224303Y-142138255D02*
X469376684Y-142138255D01*
X468767161Y-141338255D02*
X468576685Y-142138255D01*
X468576685Y-142138255D02*
X468424304Y-141566826D01*
X468424304Y-141566826D02*
X468271923Y-142138255D01*
X468271923Y-142138255D02*
X468081447Y-141338255D01*
X467776684Y-142138255D02*
X467776684Y-141338255D01*
X467395732Y-142138255D02*
X467395732Y-141338255D01*
X466557637Y-142062064D02*
X466595733Y-142100160D01*
X466595733Y-142100160D02*
X466710018Y-142138255D01*
X466710018Y-142138255D02*
X466786209Y-142138255D01*
X466786209Y-142138255D02*
X466900495Y-142100160D01*
X466900495Y-142100160D02*
X466976685Y-142023969D01*
X466976685Y-142023969D02*
X467014780Y-141947779D01*
X467014780Y-141947779D02*
X467052876Y-141795398D01*
X467052876Y-141795398D02*
X467052876Y-141681112D01*
X467052876Y-141681112D02*
X467014780Y-141528731D01*
X467014780Y-141528731D02*
X466976685Y-141452540D01*
X466976685Y-141452540D02*
X466900495Y-141376350D01*
X466900495Y-141376350D02*
X466786209Y-141338255D01*
X466786209Y-141338255D02*
X466710018Y-141338255D01*
X466710018Y-141338255D02*
X466595733Y-141376350D01*
X466595733Y-141376350D02*
X466557637Y-141414445D01*
D12*
X472771650Y-206660540D02*
X472771650Y-205934825D01*
X472771650Y-205934825D02*
X472723269Y-205789682D01*
X472723269Y-205789682D02*
X472626507Y-205692921D01*
X472626507Y-205692921D02*
X472481364Y-205644540D01*
X472481364Y-205644540D02*
X472384602Y-205644540D01*
X473158697Y-206660540D02*
X473787650Y-206660540D01*
X473787650Y-206660540D02*
X473448983Y-206273492D01*
X473448983Y-206273492D02*
X473594126Y-206273492D01*
X473594126Y-206273492D02*
X473690888Y-206225111D01*
X473690888Y-206225111D02*
X473739269Y-206176730D01*
X473739269Y-206176730D02*
X473787650Y-206079968D01*
X473787650Y-206079968D02*
X473787650Y-205838063D01*
X473787650Y-205838063D02*
X473739269Y-205741301D01*
X473739269Y-205741301D02*
X473690888Y-205692921D01*
X473690888Y-205692921D02*
X473594126Y-205644540D01*
X473594126Y-205644540D02*
X473303840Y-205644540D01*
X473303840Y-205644540D02*
X473207078Y-205692921D01*
X473207078Y-205692921D02*
X473158697Y-205741301D01*
X438521850Y-205990540D02*
X438521850Y-205264825D01*
X438521850Y-205264825D02*
X438473469Y-205119682D01*
X438473469Y-205119682D02*
X438376707Y-205022921D01*
X438376707Y-205022921D02*
X438231564Y-204974540D01*
X438231564Y-204974540D02*
X438134802Y-204974540D01*
X439537850Y-204974540D02*
X438957278Y-204974540D01*
X439247564Y-204974540D02*
X439247564Y-205990540D01*
X439247564Y-205990540D02*
X439150802Y-205845397D01*
X439150802Y-205845397D02*
X439054040Y-205748635D01*
X439054040Y-205748635D02*
X438957278Y-205700254D01*
D13*
%TO.C,*%
X471172400Y-146468100D02*
X471172400Y-143968100D01*
X471172400Y-143968100D02*
X470122400Y-143968100D01*
X470122400Y-143968100D02*
X470122400Y-142978100D01*
X464952400Y-146468100D02*
X464952400Y-143968100D01*
X464952400Y-143968100D02*
X466002400Y-143968100D01*
X470002400Y-148438100D02*
X466122400Y-148438100D01*
D14*
X465661511Y-203737407D02*
X480661511Y-203737367D01*
X480661511Y-203737367D02*
X480661491Y-196237367D01*
X480661491Y-196237367D02*
X465661491Y-196237407D01*
X465661491Y-196237407D02*
X465661511Y-203737407D01*
X464661513Y-204737409D02*
X481661513Y-204737364D01*
X481661513Y-204737364D02*
X481661488Y-195237364D01*
X481661488Y-195237364D02*
X464661488Y-195237409D01*
X464661488Y-195237409D02*
X464661513Y-204737409D01*
X431411711Y-203067407D02*
X446411711Y-203067367D01*
X446411711Y-203067367D02*
X446411691Y-195567367D01*
X446411691Y-195567367D02*
X431411691Y-195567407D01*
X431411691Y-195567407D02*
X431411711Y-203067407D01*
X430411713Y-204067409D02*
X447411713Y-204067364D01*
X447411713Y-204067364D02*
X447411688Y-194567364D01*
X447411688Y-194567364D02*
X430411688Y-194567409D01*
X430411688Y-194567409D02*
X430411713Y-204067409D01*
%TD*%
M02*
