%TF.GenerationSoftware,Flux,Pcbnew,9.0.6-9.0.6~ubuntu22.04.1*%
%TF.CreationDate,2025-12-30T03:11:03+00:00*%
%TF.ProjectId,input,696e7075-742e-46b6-9963-61645f706362,rev?*%
%TF.SameCoordinates,Original*%
%TF.FileFunction,Paste,Top*%
%TF.FilePolarity,Positive*%
%FSLAX46Y46*%
G04 Gerber Fmt 4.6, Leading zero omitted, Abs format (unit mm)*
G04 Filename: pegjumpinggamepcb-179b*
G04 Build it with Flux! Visit our site at: https://www.flux.ai (PCBNEW 9.0.6-9.0.6~ubuntu22.04.1) date 2025-12-30 03:11:03*
%MOMM*%
%LPD*%
G01*
G04 APERTURE LIST*
%ADD10C,0.000000*%
G04 APERTURE END LIST*
D10*
%TO.C,*%
G36*
X484209715Y-191218308D02*
G01*
X484413185Y-191335782D01*
X484579318Y-191501915D01*
X484696792Y-191705385D01*
X484757600Y-191932326D01*
X484757600Y-192167274D01*
X484696792Y-192394215D01*
X484579318Y-192597685D01*
X484413185Y-192763818D01*
X484209715Y-192881292D01*
X483982774Y-192942100D01*
X483747826Y-192942100D01*
X483520885Y-192881292D01*
X483317415Y-192763818D01*
X483151282Y-192597685D01*
X483033808Y-192394215D01*
X482973000Y-192167274D01*
X482973000Y-191932326D01*
X483033808Y-191705385D01*
X483151282Y-191501915D01*
X483317415Y-191335782D01*
X483520885Y-191218308D01*
X483747826Y-191157500D01*
X483982774Y-191157500D01*
X484209715Y-191218308D01*
G37*
G36*
X465832215Y-138461908D02*
G01*
X466035685Y-138579382D01*
X466201818Y-138745515D01*
X466319292Y-138948985D01*
X466380100Y-139175926D01*
X466380100Y-139410874D01*
X466319292Y-139637815D01*
X466201818Y-139841285D01*
X466035685Y-140007418D01*
X465832215Y-140124892D01*
X465605274Y-140185700D01*
X465370326Y-140185700D01*
X465143385Y-140124892D01*
X464939915Y-140007418D01*
X464773782Y-139841285D01*
X464656308Y-139637815D01*
X464595500Y-139410874D01*
X464595500Y-139175926D01*
X464656308Y-138948985D01*
X464773782Y-138745515D01*
X464939915Y-138579382D01*
X465143385Y-138461908D01*
X465370326Y-138401100D01*
X465605274Y-138401100D01*
X465832215Y-138461908D01*
G37*
G36*
X475705615Y-151561208D02*
G01*
X475909085Y-151678682D01*
X476075218Y-151844815D01*
X476192692Y-152048285D01*
X476253500Y-152275226D01*
X476253500Y-152510174D01*
X476192692Y-152737115D01*
X476075218Y-152940585D01*
X475909085Y-153106718D01*
X475705615Y-153224192D01*
X475478674Y-153285000D01*
X475243726Y-153285000D01*
X475016785Y-153224192D01*
X474813315Y-153106718D01*
X474647182Y-152940585D01*
X474529708Y-152737115D01*
X474468900Y-152510174D01*
X474468900Y-152275226D01*
X474529708Y-152048285D01*
X474647182Y-151844815D01*
X474813315Y-151678682D01*
X475016785Y-151561208D01*
X475243726Y-151500400D01*
X475478674Y-151500400D01*
X475705615Y-151561208D01*
G37*
G36*
X453708615Y-195433608D02*
G01*
X453912085Y-195551082D01*
X454078218Y-195717215D01*
X454195692Y-195920685D01*
X454256500Y-196147626D01*
X454256500Y-196382574D01*
X454195692Y-196609515D01*
X454078218Y-196812985D01*
X453912085Y-196979118D01*
X453708615Y-197096592D01*
X453481674Y-197157400D01*
X453246726Y-197157400D01*
X453019785Y-197096592D01*
X452816315Y-196979118D01*
X452650182Y-196812985D01*
X452532708Y-196609515D01*
X452471900Y-196382574D01*
X452471900Y-196147626D01*
X452532708Y-195920685D01*
X452650182Y-195717215D01*
X452816315Y-195551082D01*
X453019785Y-195433608D01*
X453246726Y-195372800D01*
X453481674Y-195372800D01*
X453708615Y-195433608D01*
G37*
G36*
X470127415Y-134051008D02*
G01*
X470330885Y-134168482D01*
X470497018Y-134334615D01*
X470614492Y-134538085D01*
X470675300Y-134765026D01*
X470675300Y-134999974D01*
X470614492Y-135226915D01*
X470497018Y-135430385D01*
X470330885Y-135596518D01*
X470127415Y-135713992D01*
X469900474Y-135774800D01*
X469665526Y-135774800D01*
X469438585Y-135713992D01*
X469235115Y-135596518D01*
X469068982Y-135430385D01*
X468951508Y-135226915D01*
X468890700Y-134999974D01*
X468890700Y-134765026D01*
X468951508Y-134538085D01*
X469068982Y-134334615D01*
X469235115Y-134168482D01*
X469438585Y-134051008D01*
X469665526Y-133990200D01*
X469900474Y-133990200D01*
X470127415Y-134051008D01*
G37*
G36*
X460307715Y-195433608D02*
G01*
X460511185Y-195551082D01*
X460677318Y-195717215D01*
X460794792Y-195920685D01*
X460855600Y-196147626D01*
X460855600Y-196382574D01*
X460794792Y-196609515D01*
X460677318Y-196812985D01*
X460511185Y-196979118D01*
X460307715Y-197096592D01*
X460080774Y-197157400D01*
X459845826Y-197157400D01*
X459618885Y-197096592D01*
X459415415Y-196979118D01*
X459249282Y-196812985D01*
X459131808Y-196609515D01*
X459071000Y-196382574D01*
X459071000Y-196147626D01*
X459131808Y-195920685D01*
X459249282Y-195717215D01*
X459415415Y-195551082D01*
X459618885Y-195433608D01*
X459845826Y-195372800D01*
X460080774Y-195372800D01*
X460307715Y-195433608D01*
G37*
G36*
X462402115Y-141700808D02*
G01*
X462605585Y-141818282D01*
X462771718Y-141984415D01*
X462889192Y-142187885D01*
X462950000Y-142414826D01*
X462950000Y-142649774D01*
X462889192Y-142876715D01*
X462771718Y-143080185D01*
X462605585Y-143246318D01*
X462402115Y-143363792D01*
X462175174Y-143424600D01*
X461940226Y-143424600D01*
X461713285Y-143363792D01*
X461509815Y-143246318D01*
X461343682Y-143080185D01*
X461226208Y-142876715D01*
X461165400Y-142649774D01*
X461165400Y-142414826D01*
X461226208Y-142187885D01*
X461343682Y-141984415D01*
X461509815Y-141818282D01*
X461713285Y-141700808D01*
X461940226Y-141640000D01*
X462175174Y-141640000D01*
X462402115Y-141700808D01*
G37*
G36*
X448522015Y-195433608D02*
G01*
X448725485Y-195551082D01*
X448891618Y-195717215D01*
X449009092Y-195920685D01*
X449069900Y-196147626D01*
X449069900Y-196382574D01*
X449009092Y-196609515D01*
X448891618Y-196812985D01*
X448725485Y-196979118D01*
X448522015Y-197096592D01*
X448295074Y-197157400D01*
X448060126Y-197157400D01*
X447833185Y-197096592D01*
X447629715Y-196979118D01*
X447463582Y-196812985D01*
X447346108Y-196609515D01*
X447285300Y-196382574D01*
X447285300Y-196147626D01*
X447346108Y-195920685D01*
X447463582Y-195717215D01*
X447629715Y-195551082D01*
X447833185Y-195433608D01*
X448060126Y-195372800D01*
X448295074Y-195372800D01*
X448522015Y-195433608D01*
G37*
%TD*%
M02*
